<?xml version="1.0" encoding="UTF-8" standalone="no"?>
<!DOCTYPE svg PUBLIC "-//W3C//DTD SVG 1.1//EN" "http://www.w3.org/Graphics/SVG/1.1/DTD/svg11.dtd">
<svg width="100%" height="100%" viewBox="0 0 1010 165" version="1.1" xmlns="http://www.w3.org/2000/svg" xmlns:xlink="http://www.w3.org/1999/xlink" xml:space="preserve" xmlns:serif="http://www.serif.com/" style="fill-rule:evenodd;clip-rule:evenodd;stroke-linejoin:round;stroke-miterlimit:1.41421;">
    <g id="layer1">
        <g transform="matrix(0.948281,0,0,0.948281,-102.23,-111.454)">
            <path d="M686.4,252.6C686,251.6 686.2,250.4 686.8,249.8C687.6,249 688.1,249.1 688.6,250.4C689,251.4 688.8,252.6 688.2,253.2C687.4,254 686.9,253.9 686.4,252.6Z" style="fill:rgb(223,154,159);fill-rule:nonzero;"/>
        </g>
        <g transform="matrix(0.948281,0,0,0.948281,-102.23,-111.454)">
            <path d="M653.5,252C652.4,250.3 654,248.8 655.6,250.1C656.3,250.7 656.7,251.6 656.4,252.1C655.7,253.3 654.3,253.2 653.5,252Z" style="fill:rgb(223,154,159);fill-rule:nonzero;"/>
        </g>
        <g transform="matrix(0.948281,0,0,0.948281,-102.23,-111.454)">
            <path d="M643,221.5C642,220.3 642.1,219.9 643.5,219.4C645.8,218.5 647.5,220.4 645.7,221.9C644.6,222.8 644,222.7 643,221.5Z" style="fill:rgb(223,154,159);fill-rule:nonzero;"/>
        </g>
        <g transform="matrix(0.948281,0,0,0.948281,-102.23,-111.454)">
            <path d="M695.4,221.9C694.4,220.2 696.7,218.3 698.1,219.7C699.3,220.9 698.5,223 697,223C696.5,223 695.8,222.5 695.4,221.9Z" style="fill:rgb(223,154,159);fill-rule:nonzero;"/>
        </g>
        <g transform="matrix(0.948281,0,0,0.948281,-102.23,-111.454)">
            <path d="M669.5,202C668.4,200.3 670,198.8 671.6,200.1C672.3,200.7 672.7,201.6 672.4,202.1C671.7,203.3 670.3,203.2 669.5,202Z" style="fill:rgb(223,154,159);fill-rule:nonzero;"/>
        </g>
    </g>
    <g id="layer2">
        <g transform="matrix(0.948281,0,0,0.948281,-102.23,-111.454)">
            <path d="M662.6,245.1C662,244.3 663.1,243.1 665.7,241.6C668,240.3 667.9,242.8 665.5,244.4C664.2,245.3 662.9,245.6 662.6,245.1Z" style="fill:rgb(189,34,32);fill-rule:nonzero;"/>
        </g>
        <g transform="matrix(0.948281,0,0,0.948281,-102.23,-111.454)">
            <path d="M650.5,225.6C649.4,224.8 649.1,224 649.7,223.7C650.3,223.3 651.5,223.7 652.5,224.4C653.6,225.2 653.9,226 653.3,226.3C652.7,226.7 651.5,226.3 650.5,225.6Z" style="fill:rgb(189,34,32);fill-rule:nonzero;"/>
        </g>
    </g>
    <g id="layer3">
        <g transform="matrix(0.948281,0,0,0.948281,-102.23,-111.454)">
            <path d="M685.1,251.6C684.2,250.6 684.3,250 685.5,249C686.3,248.3 687,247.9 687.1,248.1C687.7,251.2 687.7,252.1 687,252.5C686.6,252.8 685.7,252.4 685.1,251.6Z" style="fill:rgb(183,82,87);fill-rule:nonzero;"/>
        </g>
        <g transform="matrix(0.948281,0,0,0.948281,-102.23,-111.454)">
            <path d="M654.3,250.4C653.4,247.9 655.6,246.4 656.9,248.8C657.9,250.7 657.5,252 655.8,252C655.3,252 654.7,251.3 654.3,250.4Z" style="fill:rgb(183,82,87);fill-rule:nonzero;"/>
        </g>
        <g transform="matrix(0.948281,0,0,0.948281,-102.23,-111.454)">
            <path d="M676.5,245.6C675.1,244.6 675,244.1 675.9,243.5C676.7,243.1 677.8,243.4 678.7,244.3C680.7,246.2 678.8,247.3 676.5,245.6Z" style="fill:rgb(183,82,87);fill-rule:nonzero;"/>
        </g>
        <g transform="matrix(0.948281,0,0,0.948281,-102.23,-111.454)">
            <path d="M657.6,240.1C656.6,238.5 658.9,233.5 660.1,234.7C660.7,235.3 660.7,236.6 660.1,238.3C659,241.2 658.5,241.5 657.6,240.1Z" style="fill:rgb(183,82,87);fill-rule:nonzero;"/>
        </g>
        <g transform="matrix(0.948281,0,0,0.948281,-102.23,-111.454)">
            <path d="M656.1,230.6C655.4,229.8 655.3,228.9 655.8,228.6C656.4,228.3 657.3,228.7 657.9,229.4C658.6,230.2 658.7,231.1 658.2,231.4C657.6,231.7 656.7,231.3 656.1,230.6Z" style="fill:rgb(183,82,87);fill-rule:nonzero;"/>
        </g>
        <g transform="matrix(0.948281,0,0,0.948281,-102.23,-111.454)">
            <path d="M649.1,225.6C648.4,224.8 648.3,223.9 648.8,223.6C649.4,223.3 650.3,223.7 650.9,224.4C651.6,225.2 651.7,226.1 651.2,226.4C650.6,226.7 649.7,226.3 649.1,225.6Z" style="fill:rgb(183,82,87);fill-rule:nonzero;"/>
        </g>
        <g transform="matrix(0.948281,0,0,0.948281,-102.23,-111.454)">
            <path d="M663.7,220.4C663.4,220 663.5,218.8 664.1,217.8C664.9,216.3 665.5,216.1 666.3,216.9C667.1,217.7 667,218.4 665.9,219.5C665.1,220.4 664.1,220.8 663.7,220.4Z" style="fill:rgb(183,82,87);fill-rule:nonzero;"/>
        </g>
        <g transform="matrix(0.948281,0,0,0.948281,-102.23,-111.454)">
            <path d="M675.5,219C675.1,218.4 675.2,217.4 675.8,216.8C676.4,216.2 677,216.2 677.5,217C677.9,217.6 677.8,218.6 677.2,219.2C676.6,219.8 676,219.8 675.5,219Z" style="fill:rgb(183,82,87);fill-rule:nonzero;"/>
        </g>
        <g transform="matrix(0.948281,0,0,0.948281,-102.23,-111.454)">
            <path d="M667.4,209.6C667,208.6 667.2,207.4 667.8,206.8C668.6,206 669.1,206.1 669.6,207.4C670,208.4 669.8,209.6 669.2,210.2C668.4,211 667.9,210.9 667.4,209.6Z" style="fill:rgb(183,82,87);fill-rule:nonzero;"/>
        </g>
        <g transform="matrix(0.948281,0,0,0.948281,-102.23,-111.454)">
            <path d="M672.2,207.8C671.5,207.1 671,206 671,205.2C671,204.5 670.6,204.1 670.1,204.5C668.4,205.5 668,203.3 669.6,202C671.3,200.5 672,201.1 673.8,205.2C675,208.1 674.1,209.7 672.2,207.8Z" style="fill:rgb(183,82,87);fill-rule:nonzero;"/>
        </g>
    </g>
    <g id="layer4">
        <g transform="matrix(0.948281,0,0,0.948281,-102.23,-111.454)">
            <path d="M656.5,250.1C655.8,248.9 657.7,247.7 659,248.5C660.1,249.2 659.4,251 658,251C657.5,251 656.9,250.6 656.5,250.1Z" style="fill:rgb(207,76,78);fill-rule:nonzero;"/>
        </g>
        <g transform="matrix(0.948281,0,0,0.948281,-102.23,-111.454)">
            <path d="M680.1,248.6C678.5,247 678.2,246 679,245.5C680.3,244.7 685.2,248.9 684.4,250.1C683.6,251.5 682.5,251.1 680.1,248.6Z" style="fill:rgb(207,76,78);fill-rule:nonzero;"/>
        </g>
        <g transform="matrix(0.948281,0,0,0.948281,-102.23,-111.454)">
            <path d="M684.5,247C684.1,246.4 684.2,245.4 684.8,244.8C685.4,244.2 686,244.2 686.5,245C686.9,245.6 686.8,246.6 686.2,247.2C685.6,247.8 685,247.8 684.5,247Z" style="fill:rgb(207,76,78);fill-rule:nonzero;"/>
        </g>
        <g transform="matrix(0.948281,0,0,0.948281,-102.23,-111.454)">
            <path d="M655.4,245.7C654.7,243.7 657.6,238.7 659,239.5C659.5,239.8 659.5,241.2 658.8,242.8C657.1,246.8 656.2,247.6 655.4,245.7Z" style="fill:rgb(207,76,78);fill-rule:nonzero;"/>
        </g>
        <g transform="matrix(0.948281,0,0,0.948281,-102.23,-111.454)">
            <path d="M672.7,242.9C671.8,242.4 670.6,242.1 670.1,242.5C668.4,243.5 668,241.3 669.5,240C670.7,239 671.5,239.1 673.5,240.4C674.9,241.3 675.8,242.5 675.5,243C674.8,244.2 674.9,244.2 672.7,242.9Z" style="fill:rgb(207,76,78);fill-rule:nonzero;"/>
        </g>
        <g transform="matrix(0.948281,0,0,0.948281,-102.23,-111.454)">
            <path d="M682.5,241C682.1,240.4 682.2,239.4 682.8,238.8C683.4,238.2 684,238.2 684.5,239C684.9,239.6 684.8,240.6 684.2,241.2C683.6,241.8 683,241.8 682.5,241Z" style="fill:rgb(207,76,78);fill-rule:nonzero;"/>
        </g>
        <g transform="matrix(0.948281,0,0,0.948281,-102.23,-111.454)">
            <path d="M680.5,235C680.1,234.4 680.2,233.4 680.8,232.8C681.4,232.2 682,232.2 682.5,233C682.9,233.6 682.8,234.6 682.2,235.2C681.6,235.8 681,235.8 680.5,235Z" style="fill:rgb(207,76,78);fill-rule:nonzero;"/>
        </g>
        <g transform="matrix(0.948281,0,0,0.948281,-102.23,-111.454)">
            <path d="M658.1,232.6C657.2,231.6 657.2,231 658,230.5C659.7,229.5 661.7,231.7 660.4,233C659.6,233.8 658.9,233.6 658.1,232.6Z" style="fill:rgb(207,76,78);fill-rule:nonzero;"/>
        </g>
        <g transform="matrix(0.948281,0,0,0.948281,-102.23,-111.454)">
            <path d="M684.6,230.1C683.7,228.6 686.9,226.5 688.1,227.7C688.9,228.5 688.6,229.1 687.2,229.9C686,230.5 684.9,230.6 684.6,230.1Z" style="fill:rgb(207,76,78);fill-rule:nonzero;"/>
        </g>
        <g transform="matrix(0.948281,0,0,0.948281,-102.23,-111.454)">
            <path d="M651.1,227.6C650.2,226.6 650.2,226 651,225.5C652.3,224.7 655.2,226.9 654.4,228.1C653.6,229.4 652.4,229.2 651.1,227.6Z" style="fill:rgb(207,76,78);fill-rule:nonzero;"/>
        </g>
        <g transform="matrix(0.948281,0,0,0.948281,-102.23,-111.454)">
            <path d="M691.6,225.1C690.8,223.9 694.7,220.7 696,221.5C696.5,221.8 696.8,222.6 696.5,223.1C695.5,224.6 692.2,226.1 691.6,225.1Z" style="fill:rgb(207,76,78);fill-rule:nonzero;"/>
        </g>
        <g transform="matrix(0.948281,0,0,0.948281,-102.23,-111.454)">
            <path d="M674.3,213.8C672.6,211.7 671.8,208.2 672.9,207.6C674.2,206.8 677.3,213.1 676.2,214.2C675.7,214.7 674.9,214.5 674.3,213.8Z" style="fill:rgb(207,76,78);fill-rule:nonzero;"/>
        </g>
        <g transform="matrix(0.948281,0,0,0.948281,-102.23,-111.454)">
            <path d="M665.5,213.1C664.5,211.4 667,208.6 668.4,210C669.1,210.7 668.9,211.5 667.8,212.6C666.7,213.7 666,213.9 665.5,213.1Z" style="fill:rgb(207,76,78);fill-rule:nonzero;"/>
        </g>
        <g transform="matrix(0.948281,0,0,0.948281,-102.23,-111.454)">
            <path d="M668.5,206C668.1,205.4 668.2,204.4 668.8,203.8C669.4,203.2 670,203.2 670.5,204C670.9,204.6 670.8,205.6 670.2,206.2C669.6,206.8 669,206.8 668.5,206Z" style="fill:rgb(207,76,78);fill-rule:nonzero;"/>
        </g>
    </g>
    <g id="layer5">
        <g transform="matrix(0.948281,0,0,0.948281,-102.23,-111.454)">
            <path d="M684.5,250.6C683.4,249.8 683.1,249 683.7,248.7C684.3,248.3 685.5,248.7 686.5,249.4C687.6,250.2 687.9,251 687.3,251.3C686.7,251.7 685.5,251.3 684.5,250.6Z" style="fill:rgb(182,51,54);fill-rule:nonzero;"/>
        </g>
        <g transform="matrix(0.948281,0,0,0.948281,-102.23,-111.454)">
            <path d="M655.5,250.1C655.2,249.5 655.8,248.6 656.9,248C658.1,247.4 659.1,247.4 659.5,247.9C659.8,248.5 659.2,249.4 658.1,250C656.9,250.6 655.9,250.6 655.5,250.1Z" style="fill:rgb(182,51,54);fill-rule:nonzero;"/>
        </g>
        <g transform="matrix(0.948281,0,0,0.948281,-102.23,-111.454)">
            <path d="M658.5,239C658.1,238.4 658.2,237.4 658.8,236.8C659.4,236.2 660,236.2 660.5,237C660.9,237.6 660.8,238.6 660.2,239.2C659.6,239.8 659,239.8 658.5,239Z" style="fill:rgb(182,51,54);fill-rule:nonzero;"/>
        </g>
        <g transform="matrix(0.948281,0,0,0.948281,-102.23,-111.454)">
            <path d="M681.5,239C681.1,238.4 681.2,237.4 681.8,236.8C682.4,236.2 683,236.2 683.5,237C683.9,237.6 683.8,238.6 683.2,239.2C682.6,239.8 682,239.8 681.5,239Z" style="fill:rgb(182,51,54);fill-rule:nonzero;"/>
        </g>
        <g transform="matrix(0.948281,0,0,0.948281,-102.23,-111.454)">
            <path d="M654.5,229.1C653.8,227.9 655.7,226.7 657,227.5C658.1,228.2 657.4,230 656,230C655.5,230 654.9,229.6 654.5,229.1Z" style="fill:rgb(182,51,54);fill-rule:nonzero;"/>
        </g>
        <g transform="matrix(0.948281,0,0,0.948281,-102.23,-111.454)">
            <path d="M687.1,228.6C686.4,227.8 686.3,226.9 686.8,226.6C687.4,226.3 688.3,226.7 688.9,227.4C689.6,228.2 689.7,229.1 689.2,229.4C688.6,229.7 687.7,229.3 687.1,228.6Z" style="fill:rgb(182,51,54);fill-rule:nonzero;"/>
        </g>
        <g transform="matrix(0.948281,0,0,0.948281,-102.23,-111.454)">
            <path d="M644.6,222.1C644.3,221.6 644.7,220.7 645.4,220.1C647,218.8 648.6,220.3 647.5,222C646.7,223.2 645.3,223.3 644.6,222.1Z" style="fill:rgb(182,51,54);fill-rule:nonzero;"/>
        </g>
        <g transform="matrix(0.948281,0,0,0.948281,-102.23,-111.454)">
            <path d="M693.6,222.1C693.3,221.6 693.7,220.7 694.4,220.1C696,218.8 697.6,220.3 696.5,222C695.7,223.2 694.3,223.3 693.6,222.1Z" style="fill:rgb(182,51,54);fill-rule:nonzero;"/>
        </g>
    </g>
    <g id="layer6">
        <g transform="matrix(0.948281,0,0,0.948281,-102.23,-111.454)">
            <path d="M683,247.4C681.5,243.6 681.2,239 682.5,239.3C683.1,239.4 683.4,239.8 683.3,240.2C683.1,240.6 683.7,242.5 684.6,244.6C685.7,247.1 685.8,248.6 685.1,249.3C684.4,250 683.7,249.4 683,247.4Z" style="fill:rgb(241,55,71);fill-rule:nonzero;"/>
        </g>
        <g transform="matrix(0.948281,0,0,0.948281,-102.23,-111.454)">
            <path d="M674.5,242.1C673.8,240.9 675.7,239.7 677,240.5C678.1,241.2 677.4,243 676,243C675.5,243 674.9,242.6 674.5,242.1Z" style="fill:rgb(241,55,71);fill-rule:nonzero;"/>
        </g>
        <g transform="matrix(0.948281,0,0,0.948281,-102.23,-111.454)">
            <path d="M659.5,239.1C659.2,238.5 659.8,237.6 660.9,237C662.1,236.4 663.1,236.4 663.5,236.9C663.8,237.5 663.2,238.4 662.1,239C660.9,239.6 659.9,239.6 659.5,239.1Z" style="fill:rgb(241,55,71);fill-rule:nonzero;"/>
        </g>
        <g transform="matrix(0.948281,0,0,0.948281,-102.23,-111.454)">
            <path d="M680.6,231.1C680,230.2 684.4,225.8 687.7,224.1C691.9,221.9 690.8,224.7 686,228.3C683.3,230.3 680.9,231.6 680.6,231.1Z" style="fill:rgb(241,55,71);fill-rule:nonzero;"/>
        </g>
        <g transform="matrix(0.948281,0,0,0.948281,-102.23,-111.454)">
            <path d="M676,221C674.6,219.9 673.9,219 674.4,219C674.9,219 674.7,218.4 674.1,217.6C673.3,216.6 673.2,216 674,215.5C675,214.9 675.2,215 675.4,217.2C675.4,217.9 676.4,218.6 677.5,218.8C680.4,219.4 681.3,220.5 679.8,221.8C678.8,222.6 677.8,222.4 676,221Z" style="fill:rgb(241,55,71);fill-rule:nonzero;"/>
        </g>
        <g transform="matrix(0.948281,0,0,0.948281,-102.23,-111.454)">
            <path d="M690,221.5C689,220.3 689.1,219.9 690.5,219.4C692.8,218.5 694.5,220.4 692.7,221.9C691.6,222.8 691,222.7 690,221.5Z" style="fill:rgb(241,55,71);fill-rule:nonzero;"/>
        </g>
        <g transform="matrix(0.948281,0,0,0.948281,-102.23,-111.454)">
            <path d="M666.5,220C666.1,219.4 666.2,218.4 666.8,217.8C667.4,217.2 668,217.2 668.5,218C668.9,218.6 668.8,219.6 668.2,220.2C667.6,220.8 667,220.8 666.5,220Z" style="fill:rgb(241,55,71);fill-rule:nonzero;"/>
        </g>
    </g>
    <g id="layer7">
        <g transform="matrix(0.948281,0,0,0.948281,-102.23,-111.454)">
            <path d="M682.9,249.4C681.4,248.7 680,247.4 679.6,246.5C679.3,245.7 678.2,245 677.3,245C676.3,245 674.7,244.1 673.7,243C671.5,240.4 670.8,240.5 667.9,243.6C665.3,246.4 660.6,249.2 657.7,249.7C655,250.2 654.7,247.8 656.9,242.6C658.1,240 658.8,236.6 658.7,235C658.3,231.7 656.2,228.7 654.9,229.6C654.4,229.9 653.7,229.4 653.4,228.5C653,227.7 652,227.1 651.1,227.2C650.2,227.4 649.6,226.9 649.8,226.3C649.9,225.6 649.4,225 648.6,225C646.2,225 644.9,222.5 646.3,220.6C647.9,218.4 651.6,218.9 651.2,221.3C651,222.3 652.4,223.9 654.8,225.4C656.9,226.7 659.9,229.2 661.3,231C663.8,233.9 663.9,234.3 662.5,236.4C661.6,237.7 660.7,239.8 660.5,241C660.3,242.2 659.6,243.8 658.9,244.6C658.2,245.4 658.2,246 658.8,246C659.3,246 660.3,245.3 661,244.5C661.7,243.7 662.7,243.3 663.2,243.6C663.7,243.9 664,243.4 663.8,242.4C663.6,241.3 664.1,240.5 665,240.5C665.8,240.5 667.6,239.9 668.9,239.1C671,238 671.6,238.1 674.1,239.9C675.8,241.2 677.1,241.6 677.5,241C678.4,239.6 680.2,240.9 679.4,242.3C679.1,243 679.5,242.7 680.4,241.6C681.7,240 681.7,239.5 680.4,237.6C679.6,236.3 679.3,235.1 679.6,234.7C680,234.3 679.5,232.9 678.5,231.4C676.9,229 676.9,228.6 678.4,227.1C679.9,225.6 680.1,225.7 680.6,227.8C681.4,230.6 681.6,230.6 685.4,227.2L688.6,224.4L686.2,223.2C684.3,222.3 683.3,222.3 682.3,223.1C680.4,224.8 677.5,222.3 679.1,220.4C680.5,218.7 689.6,218.5 690.5,220C691,220.8 691.6,220.7 692.5,220C695.2,217.8 696,220 693.9,224C691.7,228.1 690.2,229.1 687.1,228.5C685.8,228.3 685.3,228.6 685.6,229.4C685.9,230.1 685.2,231.5 684,232.5C682.6,233.8 682.3,234.6 683.1,235.6C683.8,236.4 683.8,237 683,237.5C682.2,238 682.7,239.2 684.5,241C686,242.6 686.9,244.3 686.5,245C686.1,245.6 686.3,246.7 686.9,247.4C688.8,249.7 686,251.1 682.9,249.4Z" style="fill:rgb(210,50,50);fill-rule:nonzero;"/>
        </g>
        <g transform="matrix(0.948281,0,0,0.948281,-102.23,-111.454)">
            <path d="M662.8,228.3C662.5,227.8 662.5,226.5 662.6,225.3C662.7,223.3 662.3,223 659,223C655.4,223 652.3,221 653.7,219.7C654,219.3 656.7,219 659.6,219C664.2,219 664.9,218.7 664.7,217.1C664.7,216 665.3,213.7 666.2,211.8C667.1,210 668.3,207.2 668.9,205.7C670.2,202.4 672.1,202.6 673.1,206.1C673.4,207.5 674.4,210.2 675.3,212.1C677.4,216.9 678.2,220.8 677.1,221.5C676.5,221.8 675.7,221.3 675.2,220.3C674.3,218.9 673.9,218.8 672.6,219.9C671.2,221 670.9,220.9 670.1,218.9C669.1,216 669.5,214.9 671.5,215.6C672.7,216.1 672.9,215.6 672.4,212.9C671.6,208.8 671,207.9 671,210.7C671,211.8 670.3,213.3 669.5,214C668.7,214.7 668,216.1 668,217.1C668,218.1 667.1,220.5 665.9,222.4C664.8,224.3 664.1,226.4 664.4,226.9C664.8,227.4 664.6,228.1 664.1,228.4C663.6,228.8 663,228.7 662.8,228.3Z" style="fill:rgb(210,50,50);fill-rule:nonzero;"/>
        </g>
    </g>
    <g id="layer8" transform="matrix(0.948281,0,0,0.948281,-102.23,-111.454)">
        <path d="M656.5,248C655.9,247.1 658.1,241.3 661.1,235.7C662.1,233.8 660.3,231.7 651.8,224.8C648.6,222.2 648.6,222 650.3,220.3C651.7,218.8 652.4,218.7 654,219.8C656.5,221.3 664.2,221.4 665.7,219.9C666.3,219.3 666.6,218.1 666.3,217.4C666,216.6 666.5,214.9 667.4,213.5C668.3,212.2 669,210.2 669,209.2C669,208.2 669.3,207 669.7,206.7C670.8,205.6 674,209.1 674,211.5C674,212.7 674.3,214 674.8,214.4C675.5,215.2 675.6,215.6 675.9,218.3C676.1,220.5 680.9,222.3 682.6,220.9C683.7,220 684.4,220.1 685.5,221C686.3,221.7 688,222 689.4,221.6C690.8,221.3 692.1,221.4 692.4,221.8C693,222.8 683.1,231.6 681.9,231.3C680.9,231 681.5,235.6 682.9,239.3C683.5,240.8 683.7,242 683.4,242C683,242 683.5,243.1 684.3,244.4C685.8,246.6 685.8,246.9 684.3,248.1C683,249.2 682.5,249.1 681.1,247.5C680.2,246.4 677.6,244.2 675.2,242.6L671,239.7L665.3,243.6C662.1,245.8 659,247.8 658.3,248.3C657.7,248.7 656.8,248.6 656.5,248Z" style="fill:rgb(239,39,38);fill-rule:nonzero;"/>
    </g>
    <g id="layer9">
        <g transform="matrix(0.948281,0,0,0.948281,-102.23,-111.454)">
            <path d="M825.6,288.1C824.7,287.2 823.9,284.9 823.8,283C823.5,279.3 823.2,279.4 835.2,277C850.2,274 854.8,268.7 855.7,253.5C856.1,246.9 856,244 855.2,244C854.6,244 851.7,244.9 848.8,246.1C842.1,248.7 826.9,249.8 820.7,248.1C814.7,246.4 807,240.4 804,235L801.5,230.5L801.5,199.1L801.5,167.7L808.4,165.3C812.3,164.1 815.7,163.3 816.2,163.8C816.6,164.2 817,178.8 817.2,196.2C817.5,232.1 817.3,231.3 826.1,235.8C831.9,238.9 841.2,238.4 849.3,234.7L855,232.1L855.2,198.8L855.5,165.5L870.5,165.5L870.8,206.5C871,231.7 870.7,250.8 870,256C867.4,276.8 857.1,285.3 829.8,289.3C828.1,289.6 826.5,289.1 825.6,288.1Z" style="fill:rgb(100,100,100);fill-rule:nonzero;"/>
        </g>
        <g transform="matrix(0.948281,0,0,0.948281,-102.23,-111.454)">
            <path d="M262,248.9C254.7,248.1 247.5,244.3 241.8,238.2C232.8,228.6 229.5,218.5 230.2,202.3C230.5,192.9 230.9,191.6 234.5,184.5C238.9,175.8 244.6,170.1 253,166.1C257.7,163.9 259.9,163.5 267.5,163.5C275.4,163.6 277.3,163.9 282.5,166.5C290.3,170.3 296.9,177 301.1,185.5C304,191.5 304.5,193.5 304.8,202C305.5,218 302.1,228.7 293.3,238.1C285.1,246.9 275.1,250.4 262,248.9ZM277.9,236.2C284.8,231.1 288.3,221.3 288.4,206.5C288.5,193.3 286.3,186.1 280.6,180.4C275.9,175.6 270.2,173.6 264.1,174.6C250.5,176.8 244.1,191 246.9,212.8C248.5,225.7 253.2,234.2 260.5,237.6C264.6,239.6 274.5,238.8 277.9,236.2Z" style="fill:rgb(100,100,100);fill-rule:nonzero;"/>
        </g>
        <g transform="matrix(0.948281,0,0,0.948281,-102.23,-111.454)">
            <path d="M324.9,247.8C321.2,246.5 316.6,244.2 314.6,242.7C310.7,239.7 310.7,239.5 314.8,233.2C316.1,231.2 316.5,231.1 318.4,232.3C323,235.3 332.2,238 337.8,238C349.4,238 357.2,231 354.9,222.7C353.6,218 351.1,216.4 336.2,210.8C327.5,207.6 323.6,205.6 320,202.3C314,196.9 312.7,193.7 313.2,185.6C313.7,177.9 317.1,172.2 324,167.8C329.7,164.2 334.1,163 342.3,162.9C349.3,162.8 360.3,165.8 364,168.8C366,170.5 366,170.5 363.4,174.8C361.4,178.1 360.4,179 359.2,178.4C341.5,170.7 327,173.9 327,185.4C327,190 330.5,192.5 344.6,198.1C355.7,202.4 359.3,204.4 363.5,208.2C373.6,217.4 373.7,229.3 363.7,239.5C354.3,249.1 338.4,252.5 324.9,247.8Z" style="fill:rgb(100,100,100);fill-rule:nonzero;"/>
        </g>
        <g transform="matrix(0.948281,0,0,0.948281,-102.23,-111.454)">
            <path d="M472.7,248.8C465.2,247.8 457.9,243.8 452.3,237.6C446.7,231.3 445.4,228.7 442.9,219.3C439.7,206.7 440.6,194.5 445.6,184.7C449,177.8 457.1,169.7 463.9,166.4C468.7,164.1 470.9,163.7 478.5,163.6C486.2,163.5 488.3,163.9 493.2,166.2C512.9,175.4 521.4,198.4 514,222.2C509.4,237.1 496.9,247.9 482.5,249.2C480.3,249.5 475.9,249.3 472.7,248.8ZM488.1,236.7C495.5,232.8 500,221.3 500,206.5C500,183 488.9,170.6 472.3,175.5C462.5,178.4 458,187.2 458,203.6C458,221.8 463.1,234.3 472,237.9C476.5,239.7 483.4,239.2 488.1,236.7Z" style="fill:rgb(100,100,100);fill-rule:nonzero;"/>
        </g>
        <g transform="matrix(0.948281,0,0,0.948281,-102.23,-111.454)">
            <path d="M1048.7,248.8C1041.2,247.8 1033.9,243.8 1028.3,237.5C1022.9,231.6 1020.4,226.5 1018.5,217.2C1016.6,208.5 1016.6,200.8 1018.5,193.5C1020.9,184.4 1023.9,179.3 1030.5,173.2C1038.3,165.9 1044.5,163.5 1055.5,163.5C1065.2,163.6 1072.4,166.5 1079.8,173.4C1102.1,194.2 1094.6,237.6 1067,247.3C1061.1,249.4 1055.8,249.8 1048.7,248.8ZM1064.1,236.7C1071.7,232.7 1076,221.9 1076,206.5C1076,183.1 1065,170.7 1048.5,175.5C1038.5,178.4 1034,187.1 1034,203.6C1034,221.8 1039.1,234.3 1048,237.9C1052.5,239.7 1059.4,239.2 1064.1,236.7Z" style="fill:rgb(100,100,100);fill-rule:nonzero;"/>
        </g>
        <g transform="matrix(0.948281,0,0,0.948281,-102.23,-111.454)">
            <path d="M157.3,247.8C156.8,247.1 148.5,227 138.9,203.2L121.5,159.9L121,203.7L120.5,247.5L115.5,247.5L110.5,247.5L110.2,190.6C110.1,153.9 110.3,133.3 111,132.5C112.5,130.7 123.9,127.5 124.9,128.6C125.4,129.1 134.7,150.8 145.6,176.8C156.5,202.7 165.6,224 165.9,224C166.2,224 174.6,203.4 184.4,178.2C194.2,153.1 202.7,131.9 203.3,131.2C204,130.3 206.7,130 212.4,130.2L220.5,130.5L220.5,247.5L213,247.5L205.5,247.5L205,202.7L204.5,157.9L197.8,175.2C179,223.4 171.7,241.7 170.5,243.6C169.7,244.8 167,246.5 164.4,247.4C158.7,249.3 158.5,249.3 157.3,247.8Z" style="fill:rgb(100,100,100);fill-rule:nonzero;"/>
        </g>
        <g transform="matrix(0.948281,0,0,0.948281,-102.23,-111.454)">
            <path d="M396.5,246.6C390,243.6 382.6,235.6 378.7,227.2C375.9,221.3 375.5,219.3 375.2,209.8C374.8,200.9 375.2,197.9 377,191.9C382.4,174.1 393.6,164.3 409.7,163.2C417.1,162.7 428.2,165.2 432.4,168.3C434.5,169.8 434.2,173 431.7,176.3C430.4,178.1 430.2,178.1 423.1,176C405.7,170.7 396.3,176.6 391.4,196C389.5,203.6 389.9,214.9 392.5,222.2C394.5,227.8 400.7,235.2 405,237C409.7,238.9 421.3,237.8 428.3,234.6C431.5,233.2 434.3,232 434.6,232C435.2,232 438,238.5 438,240C438,241.3 429.8,245.4 423.1,247.4C414.7,249.9 402.7,249.5 396.5,246.6Z" style="fill:rgb(100,100,100);fill-rule:nonzero;"/>
        </g>
        <g transform="matrix(0.948281,0,0,0.948281,-102.23,-111.454)">
            <path d="M545.2,247.3C544.7,246.3 541.9,238.3 539.1,229.5C536.2,220.7 530.8,204.1 527,192.5C523.2,181 520,170.7 519.8,169.7C519.6,168.2 520.9,167.3 525.9,165.4C529.4,164.1 532.5,163.2 532.9,163.4C533.2,163.6 537.8,176.9 543,192.9C548.2,208.9 552.8,222 553.1,222C553.4,222 556.9,210.2 561,195.8C565,181.3 568.7,169 569.1,168.4C569.6,167.8 572.4,166.5 575.4,165.5C579.5,164.1 581.2,163.9 582.2,164.8C583,165.4 587.8,178.7 593,194.4C598.2,210.1 602.7,222.4 603.1,221.7C603.5,221.1 607.2,208.1 611.5,193C615.7,177.9 619.6,165.1 620.1,164.5C620.7,163.9 622.6,164.1 625.3,165.1C628.6,166.2 629.4,167 629.2,168.5C628.8,171.2 609.1,241 608.1,243.5C607.3,245.5 596.5,249.8 595.3,248.7C595.1,248.4 590.4,234.8 585,218.5C579.6,202.1 574.9,188.6 574.7,188.4C574.5,188.2 570.8,200.5 566.5,215.7C562.2,231 558.3,243.9 557.9,244.4C557,245.4 548.2,249 546.8,249C546.4,249 545.7,248.2 545.2,247.3Z" style="fill:rgb(100,100,100);fill-rule:nonzero;"/>
        </g>
        <g transform="matrix(0.948281,0,0,0.948281,-102.23,-111.454)">
            <path d="M908.2,247.7C903.4,245.9 898.3,241.4 896,237C894.1,233.4 894,231.1 894,204.6L894,176.1L889.8,175.8L885.5,175.5L885.5,170.5L885.5,165.5L889.7,165.2L893.9,164.9L894.2,153.8L894.5,142.7L900.8,140.3C904.3,139 907.6,138.2 908.1,138.5C908.6,138.9 909,144.9 909,152L909,164.9L916.3,165.2L923.5,165.5L923.5,175.5L916.2,175.8L908.9,176.1L909.2,204.3C909.6,237.5 909.4,236.9 918.7,239.2C924.1,240.5 924.5,240.8 924.5,243.5C924.5,245.2 924.1,247.1 923.6,247.8C922.5,249.3 912.7,249.3 908.2,247.7Z" style="fill:rgb(100,100,100);fill-rule:nonzero;"/>
        </g>
        <g transform="matrix(0.948281,0,0,0.948281,-102.23,-111.454)">
            <path d="M725.2,246.8C723.5,245.1 723.4,132 725.2,130.2C726.7,128.7 760.3,128.5 768,130C778.9,132.1 788.4,139.1 793,148.5C795.1,152.7 795.5,154.9 795.5,162C795.5,169.2 795.1,171.2 792.8,175.5C789.9,181 784.6,186.4 778.5,190.1C774.8,192.3 773.4,192.5 757.3,192.8L740,193.2L739.8,220.3L739.5,247.5L733,247.8C728.8,248 726,247.6 725.2,246.8ZM769.5,180.1C775.2,177.6 778.6,173 780,166.5C782.1,156.2 777.2,146.5 767.8,142.6C765.1,141.4 760.6,141 752,141L740,141L740,182L752.8,182C763,182 766.3,181.6 769.5,180.1Z" style="fill:rgb(100,100,100);fill-rule:nonzero;"/>
        </g>
        <g transform="matrix(0.948281,0,0,0.948281,-102.23,-111.454)">
            <path d="M939.5,246.8C939.2,246.1 939.1,217.6 939.2,183.6L939.5,121.7L945.3,119.7C948.5,118.7 951.7,118.1 952.5,118.4C953.8,118.8 954,123.1 954,146.1L954,173.2L958.3,170.7C965.4,166.5 973.3,164.7 982.5,165.2C990,165.6 991.2,166 995.6,169.1C999,171.6 1001.4,174.4 1003.5,178.5L1006.5,184.4L1006.8,215C1007.1,241.2 1006.9,245.8 1005.7,246.9C1004.7,247.6 1001.8,248 997.8,247.8L991.5,247.5L991,217.5C990.5,187.8 990.5,187.5 988,183C986.6,180.6 984.4,178 983,177.3C977,174.3 965.8,176.7 956.9,183.1L954,185.1L953.8,216.3L953.5,247.5L946.7,247.8C941.9,248 939.8,247.7 939.5,246.8Z" style="fill:rgb(100,100,100);fill-rule:nonzero;"/>
        </g>
        <g transform="matrix(0.948281,0,0,0.948281,-102.23,-111.454)">
            <path d="M1102.7,247.4C1102.3,247 1102,231.2 1102,212.3L1102,178L1108.1,173.5C1117.1,166.9 1127.7,163.6 1140.5,163.6C1149.1,163.6 1151.2,163.9 1155.5,166C1162,169.2 1167.7,175 1168.5,179.2C1168.8,181 1168.9,197.1 1168.8,215L1168.5,247.5L1161.5,247.5L1154.5,247.5L1154,216.5C1153.4,181.1 1153.3,180.5 1145,176.2C1141.3,174.2 1139.4,173.9 1134,174.3C1130.1,174.5 1125.6,175.6 1122.8,177L1118,179.2L1117.8,213.4L1117.5,247.5L1110.5,247.8C1106.6,247.9 1103.1,247.8 1102.7,247.4Z" style="fill:rgb(100,100,100);fill-rule:nonzero;"/>
        </g>
    </g>
    <g id="layer10">
        <g transform="matrix(0.948281,0,0,0.948281,-102.23,-111.454)">
            <path d="M0,203.5L0,0L1279,0L1279,407L639.5,407L0,407L0,203.5ZM838.4,285.9C850.9,283.7 860.6,277.7 864.4,269.7C868.3,261.6 869,252 869,207.9L869,167L863,167L857,167L857,233.1L850.6,236.1C839.5,241.3 830.7,241.2 822.7,236C815.2,231 815,229.7 815,195L815,165.1L808.9,167.2L802.9,169.2L803.2,199.9C803.5,229.4 803.6,230.7 805.7,234.7C808.2,239.3 814.3,244 820.4,246C826.6,248 842,246.8 850.3,243.6C858.5,240.4 858.5,240.4 857.7,253.6C856.7,271.1 851.1,276.1 827.7,280.5C825.3,281 825.1,281.4 825.6,283.8C826.7,288.3 825.7,288.1 838.4,285.9ZM663.9,244.6C667.4,242.1 670.6,240 671,240C671.5,240 674.2,241.9 677.2,244.3C680.1,246.6 683.5,249 684.6,249.6C686.6,250.7 686.7,250.6 685.7,247.6C685.1,245.9 684.1,243.2 683.4,241.5C680.7,234.7 680.7,233.9 683.6,230.9C685.1,229.3 686.9,228 687.4,228C688,227.9 690.2,226.4 692.4,224.5L696.2,221.1L686.4,220.8L676.5,220.5L675.4,216.5C674.2,212 673.4,209.8 671.5,205.5C670.4,203.2 670.1,202.9 670.1,204.5C670,205.6 669.4,207.7 668.6,209.1C667.9,210.5 667,213.3 666.6,215.2C666.2,217.2 665.4,219.3 664.7,219.9C664,220.4 659.4,221 654.6,221.2L645.8,221.5L650,224.5C660.9,232.4 661.3,233.2 658.7,240.7C655.4,249.8 655.1,251.2 656.3,250.2C657,249.7 660.4,247.2 663.9,244.6ZM282.5,244.2C292.5,239.1 299.5,229.4 302,217.3C302.7,214.2 303,207.3 302.8,202C302.5,193.5 302,191.5 299.1,185.5C295,177.2 290.1,172.1 282.4,168.4C277.3,165.9 275.4,165.6 267.5,165.6C260.3,165.6 257.5,166 253.6,167.8C245.4,171.5 240.7,176.1 236.5,184.5C232.8,191.6 232.5,192.9 232.2,202.3C231.9,208.2 232.3,214.6 233,217.9C236.6,234 247.9,245.4 262,246.9C269.5,247.8 277.8,246.7 282.5,244.2ZM349.1,246C364.3,241.4 371.6,230.3 368,217.5C366.1,210.9 360.3,206.1 348.3,201.5C342.9,199.5 336.1,196.7 333.2,195.3C325.3,191.6 323,185.8 327,179.3C331.2,172.3 342.1,170.1 353,174C356,175.1 358.9,176.1 359.4,176.3C359.9,176.4 361.1,175.1 362.2,173.3L364.1,170.2L358.3,168C350.2,165 345.6,164.3 337.7,165.2C324,166.6 315.9,174 315.2,185.6C314.7,193.3 316,196.9 320.8,201.1C324.5,204.4 324.7,204.5 340.3,210.4C351.5,214.7 355.5,217.7 356.9,222.6C359.4,231.6 350.2,239.9 337.8,240C332.5,240 321.9,237 319.6,234.9C317.8,233.3 316.1,234 314.5,236.9C313,239.8 313.1,239.9 316.6,242.1C326,247.9 338.3,249.4 349.1,246ZM491,245.3C511.9,238 521.2,208 509.9,184.4C506.5,177.2 500.9,171.8 493.1,168.1C488.3,165.9 486.2,165.5 478.5,165.6C470.9,165.7 468.7,166.1 463.9,168.4C445.9,177.1 438.6,199.7 446,223.3C452,242.4 471.7,252 491,245.3ZM1067,245.3C1078.7,241.2 1086.4,231.4 1089.6,216.5C1093.1,200.5 1088.6,183.3 1078.7,174.3C1072,168.3 1064.8,165.6 1055.5,165.5C1045.2,165.5 1038.3,168 1031.6,174.1C1019.7,184.9 1016,204 1022,223.3C1027.9,242.4 1047.7,252 1067,245.3ZM164.3,245.4L168.9,243.8L174,230.7C197.8,169.5 204.4,153.5 205.5,153.5C206.1,153.5 206.6,169.8 206.8,199.8L207,246L219,246L219,189L219,132L211.8,132L204.5,132L186,179.1C175.9,205 167.2,226.4 166.7,226.7C166.2,227 165.4,226.8 164.9,226.3C164.4,225.8 155,204.1 144.1,178.2C133.2,152.2 124.1,130.7 123.7,130.4C123.4,130.1 120.7,130.6 117.6,131.6L112,133.4L112,246L119,246L119.2,201.8C119.5,163.2 119.7,157.5 121,157.5C122,157.5 128,171.1 140.5,202.2C150.4,226.8 158.8,247 159.1,247C159.4,247 161.7,246.3 164.3,245.4ZM427.1,244.2C435.3,241 436.3,240 435.1,236.7L434.1,234L428.3,236.6C421.4,239.7 409.7,240.9 405,239C400.3,237.1 392.4,227.8 390.3,221.8C387.6,213.9 387.8,199.5 390.8,190.8C393.4,183.3 399.1,176.2 404.4,173.6C409,171.5 415.5,171.6 423.2,174C429.1,175.9 429.6,175.9 430.8,174.3C433,171.2 431.7,169.6 425,167.2C413.3,163.1 397.6,165.4 390.1,172.3C386,176.1 381.2,184.4 379,191.9C377.2,197.9 376.8,200.9 377.2,209.8C377.5,219.3 377.9,221.3 380.7,227.1C384.6,235.5 390.1,241.7 396.5,244.7C401,246.8 402.6,247.1 411.5,246.7C418.6,246.4 423.1,245.7 427.1,244.2ZM553,245L556.5,243.8L564.4,216.2C573.3,184.8 573.6,183.7 574.9,184.4C575.4,184.8 580.4,198.9 586.1,215.8C591.7,232.7 596.4,246.6 596.5,246.7C597,247.4 606.2,243.6 606.5,242.6C609,234.9 627,169.9 627,168.8C627,167.3 622.3,165.3 621.3,166.4C621.1,166.6 617.1,180 612.6,196.2C606.8,216.6 603.9,225.5 602.9,225.5C602,225.5 598.3,216.1 591.9,197C586.7,181.3 582.1,167.8 581.8,167C581.4,165.7 580.6,165.7 575.9,167.3L570.5,169.2L562.5,197.3C557,216.6 554.1,225.5 553.1,225.5C552.2,225.5 548.4,215.3 541.9,195.3L531.9,165.1L527.3,166.8C524.8,167.7 522.5,169 522.3,169.7C522.1,170.3 525,180.4 528.9,192.2C532.7,203.9 538.2,220.7 541.1,229.5C547,247.7 546.8,247.3 548.3,246.6C549,246.3 551.1,245.6 553,245ZM922.5,244.5C922.5,242.4 921.8,241.9 917.8,240.9C911.9,239.5 908.4,235.6 907.5,229.7C907.2,227.4 907,214 907.2,200L907.5,174.5L914.8,174.2L922,173.9L922,170.5L922,167.1L914.8,166.8L907.5,166.5L907,153.4L906.5,140.2L901.3,142.2L896.1,144.1L895.8,155.3L895.5,166.5L891.3,166.8C887.1,167.1 887,167.2 887,170.5C887,173.8 887.1,173.9 891.3,174.2L895.5,174.5L896,204.5C896.4,230.5 896.7,234.9 898.2,237.7C901.5,243.6 908,246.8 917,246.9C922.2,247 922.5,246.9 922.5,244.5ZM738.2,218.8L738.5,191.5L756.5,191C773.3,190.5 774.8,190.3 778.5,188.1C784.6,184.4 787.9,181 790.8,175.5C793.1,171.3 793.5,169.2 793.5,162C793.5,155 793.1,152.6 791.1,148.6C786.7,139.8 778.7,134 768,132C765.1,131.5 754.5,131 744.4,131L726,131L726,246L738,246L738.2,218.8ZM952,215.1L952,184.2L956.8,181.2C965.6,175.5 970.7,173.7 977.1,174.2C983.8,174.7 986.7,176.8 990.3,183.5C992.4,187.3 992.5,189 992.8,216.8L993.1,246L1005.2,246L1004.8,215.3L1004.5,184.5L1001.7,178.9C997.7,170.6 992.9,167.8 982.4,167.2C973.3,166.7 965.4,168.5 958.3,172.7C956,174 953.6,174.9 953,174.5C952.4,174.1 952,164.3 952,146.9C952,132.1 951.6,120 951.2,120C950.7,120 948.3,120.7 945.7,121.6L941,123.2L941,246L952,246L952,215.1ZM1116,212.6L1116,179.1L1118.8,177.2C1122.8,174.3 1130.4,172 1135.8,172C1144.8,172.1 1152.7,177.8 1155,185.8C1155.6,187.9 1156,201.4 1156,217.8L1156,246L1167,246L1167,212.9C1167,175.9 1166.9,175.1 1160.2,170.8C1153.4,166.4 1150,165.5 1140,165.6C1128.6,165.7 1117.6,168.9 1109.3,174.6L1104,178.2L1104,246L1116,246L1116,212.6Z" style="fill:white;fill-rule:nonzero;"/>
        </g>
        <g transform="matrix(0.948281,0,0,0.948281,-102.23,-111.454)">
            <path d="M260.5,239.6C256.2,237.7 250.4,231.3 248,225.8C244,216.7 243.2,199.1 246.2,188.7C247.6,184.2 254,176.6 258.4,174.3C262.8,172 271.6,172.1 276.1,174.6C287.1,180.4 292.6,196.1 290.1,214.4C288.7,224 286.1,230.3 281.2,235.3C275.9,240.8 267.2,242.6 260.5,239.6Z" style="fill:white;fill-rule:nonzero;"/>
        </g>
        <g transform="matrix(0.948281,0,0,0.948281,-102.23,-111.454)">
            <path d="M472,239.9C465.5,237.2 459.2,228 457.1,218.2C455.5,210.7 455.7,195.3 457.5,189.3C461.8,174.8 477.4,168 489.2,175.6C497.2,180.7 500.8,188.6 501.7,202.5C503.1,225.1 494.7,239.9 480.3,240.7C477.1,240.8 473.4,240.5 472,239.9Z" style="fill:white;fill-rule:nonzero;"/>
        </g>
        <g transform="matrix(0.948281,0,0,0.948281,-102.23,-111.454)">
            <path d="M1048,239.9C1041.5,237.2 1035.2,228 1033.1,218.2C1031.5,210.7 1031.7,195.3 1033.5,189.3C1037.9,174.5 1054.4,167.7 1066,176.1C1074,181.9 1078,192 1078,206.5C1077.9,227.3 1069.9,240 1056.3,240.7C1053.1,240.8 1049.4,240.5 1048,239.9Z" style="fill:white;fill-rule:nonzero;"/>
        </g>
        <g transform="matrix(0.948281,0,0,0.948281,-102.23,-111.454)">
            <path d="M738.4,182.7C738.2,182 738.1,172 738.2,160.5L738.5,139.5L750.5,139.2C765.1,138.8 768.8,139.8 775.1,145.7C784.3,154.3 785.2,167.4 777.2,176.3C771.2,182.8 767.6,184 752.2,184C742.4,184 738.8,183.7 738.4,182.7Z" style="fill:white;fill-rule:nonzero;"/>
        </g>
    </g>
</svg>
