<?xml version="1.0" standalone="no"?>
<!DOCTYPE svg PUBLIC "-//W3C//DTD SVG 1.1//EN" "http://www.w3.org/Graphics/SVG/1.1/DTD/svg11.dtd" >
<svg xmlns="http://www.w3.org/2000/svg">
<metadata></metadata>
<defs>
<font id="SansusWebissimoRegular" horiz-adv-x="1044" >
<font-face units-per-em="2048" ascent="1536" descent="-512" />
<missing-glyph horiz-adv-x="430" />
<glyph horiz-adv-x="0" />
<glyph horiz-adv-x="2048" />
<glyph unicode="&#xd;" horiz-adv-x="430" />
<glyph unicode=" "  horiz-adv-x="430" />
<glyph unicode="&#x09;" horiz-adv-x="430" />
<glyph unicode="&#xa0;" horiz-adv-x="430" />
<glyph unicode="!" horiz-adv-x="577" d="M135 152q0 78 44 125t110 47t109.5 -47t43.5 -125t-44 -125t-109 -47q-66 0 -110 47t-44 125zM135 1450h309l-34 -907h-240z" />
<glyph unicode="&#x22;" horiz-adv-x="749" d="M78 1446h227l-29 -496h-170zM426 1446h227l-28 -496h-172z" />
<glyph unicode="#" horiz-adv-x="1011" d="M23 379l24 194h148l43 228h-166l24 192h178l56 299l202 -18l-53 -281h166l53 289l203 -20q-14 -68 -25.5 -134.5t-25.5 -134.5h139q-19 -152 -22 -192h-154l-43 -228h170l-25 -194h-180l-61 -326q-133 16 -201 21l55 305h-166l-59 -313q-86 7 -201 20l56 293h-135z M399 573h166l43 228h-168q-28 -158 -41 -228z" />
<glyph unicode="$" horiz-adv-x="888" d="M53 139l49 201q20 -6 52 -16.5t69 -20.5q89 -24 155.5 -24t101 31.5t34.5 78.5t-32.5 82t-81 69.5t-104.5 70.5t-104 82q-114 108 -114 237t70.5 212t197.5 111l-4 209h209q-4 -98 -4 -196q87 -7 229 -41l-22 -213q-119 41 -208 41q-175 0 -175 -105q0 -43 33.5 -77.5 t83 -68.5t108.5 -70t108 -81q117 -106 117 -236t-66.5 -219.5t-207.5 -117.5l4 -201h-209l4 186q-97 7 -161 28q-83 29 -132 48z" />
<glyph unicode="%" horiz-adv-x="1359" d="M68 1042q0 346 266 347q266 -1 266 -347q0 -180 -65.5 -265t-201.5 -85t-200.5 85t-64.5 265zM240 1042q0 -206 94 -206q53 0 74.5 53t21.5 153q0 203 -96 203q-51 0 -72.5 -52t-21.5 -151zM242 -10l661 1372h223l-659 -1372h-225zM768 309q0 346 267.5 346t267.5 -346 q0 -180 -67 -265t-203 -85t-200.5 85t-64.5 265zM940 308.5q0 -99.5 21.5 -152t73.5 -52.5t73.5 52.5t21.5 152.5q0 203 -96 203q-51 0 -72.5 -52t-21.5 -151.5z" />
<glyph unicode="&#x26;" horiz-adv-x="1308" d="M47 393q0 139 69.5 233.5t182.5 149.5q-59 61 -99 132t-40 167q0 156 100 236t270.5 80t271.5 -74t101 -215t-70.5 -231.5t-185.5 -153.5l219 -248q40 60 53 122t13 85h270q-11 -165 -106 -324q-25 -43 -52 -73l252 -279h-366l-86 98q-68 -57 -151 -89t-191.5 -32 t-188.5 25t-139 75q-127 108 -127 316zM352 414q0 -94 46 -155.5t124 -61.5q45 0 88 19.5t66 57.5l-217 330q-107 -55 -107 -190zM451 1071q0 -39 5 -73.5t40 -75.5l28 -33q35 25 70 71t35 95q0 125 -97 125q-81 0 -81 -109z" />
<glyph unicode="'" horiz-adv-x="403" d="M78 1446h227l-29 -496h-170z" />
<glyph unicode="(" horiz-adv-x="667" d="M104 573q0 342 108 609q88 217 239 352l176 -125q-148 -165 -215 -539q-25 -137 -25 -297q0 -285 85 -537q66 -195 155 -294l-178 -127q-233 209 -315 621q-30 151 -30 337z" />
<glyph unicode=")" horiz-adv-x="667" d="M39 -258q148 165 217 540q25 136 25 296q0 284 -87 536q-67 197 -155 295l178 125q239 -224 317 -620q29 -150 29 -336q0 -507 -219 -816q-63 -88 -127 -145z" />
<glyph unicode="*" horiz-adv-x="837" d="M39 1026l65 199l234 -107l-27 268h215l-30 -268l239 107q16 -49 31.5 -99.5t32.5 -99.5l-252 -51l184 -201l-174 -125l-137 234l-139 -234q-43 31 -86 61.5t-86 63.5l182 199q-95 18 -252 53z" />
<glyph unicode="+" horiz-adv-x="962" d="M80 514v217h287v318h229v-318h287v-217h-287v-319h-229v319h-287z" />
<glyph unicode="," horiz-adv-x="477" d="M49 -246q84 154 84 228q0 39 -11 76.5t-11 86.5v11q0 68 37.5 109.5t82.5 41.5q145 0 146 -180q-10 -137 -135 -333q-35 -54 -68 -103z" />
<glyph unicode="-" horiz-adv-x="653" d="M74 463v221h506v-221h-506z" />
<glyph unicode="." horiz-adv-x="509" d="M100 152q0 78 44 125t110 47t110 -47t44 -125t-44.5 -125t-109.5 -47q-66 0 -110 47t-44 125z" />
<glyph unicode="/" horiz-adv-x="800" d="M2 -276q193 647 359.5 1151.5t201.5 594.5h246q-108 -294 -291.5 -880t-267.5 -866h-248z" />
<glyph unicode="0" horiz-adv-x="1048" d="M63 672q0 538 263 660q86 40 196 40q461 0 461 -700q0 -540 -264 -660q-86 -39 -197 -39q-228 0 -340 163q-119 172 -119 536zM346 672q0 -236 37 -362t139 -126t141 125t39 362t-38.5 363.5t-140 126.5t-139.5 -127t-38 -362z" />
<glyph unicode="1" horiz-adv-x="737" d="M-10 1059q207 168 379 289h252v-1348h-283v1063q-99 -82 -225 -178z" />
<glyph unicode="2" horiz-adv-x="878" d="M33 0v199q25 27 69.5 73.5t98 108t109 132.5t100.5 145q102 166 102 290q0 201 -178 201q-94 0 -205 -40q-25 -9 -37 -15q-22 88 -45 194q168 84 359.5 84t294 -93t102.5 -271q0 -298 -295 -623q-80 -88 -156 -162q345 13 467 13v-236h-786z" />
<glyph unicode="3" horiz-adv-x="954" d="M16 80l76 196q10 -4 36 -16t62 -24q95 -33 188 -33t153.5 46t60.5 157q0 174 -217 174l-150 -2v206h70q139 0 189 40q71 59 71 165q0 156 -197 156q-108 0 -208 -37q-21 -8 -27 -10l-49 209q152 65 350.5 65t312 -86t113.5 -252q0 -123 -57.5 -199.5t-137.5 -119.5 q106 -29 171 -106t65 -202t-36 -204.5t-99 -130.5q-122 -99 -346 -99q-130 0 -266 49q-50 19 -81.5 36.5t-46.5 21.5z" />
<glyph unicode="4" horiz-adv-x="1050" d="M57 350v185l359 813h291l-330 -768h227v235l283 41v-276h106v-230h-106v-350h-283v350h-547z" />
<glyph unicode="5" horiz-adv-x="935" d="M41 88l74 180q79 -44 161 -59.5t121 -15.5q92 0 139.5 60t47.5 169.5t-50.5 166t-146.5 56.5q-59 0 -112.5 -16.5t-69.5 -26.5q-55 18 -76 23l55 723h631v-226h-418l-20 -295q53 23 108 23q172 0 278.5 -106.5t106.5 -321.5q0 -228 -130 -343q-119 -104 -330 -104 q-186 0 -322 87q-29 18 -47 26z" />
<glyph unicode="6" horiz-adv-x="983" d="M61 510q0 336 186 570q154 193 433 304l84 -196q-267 -114 -363 -367q97 39 180 39t146.5 -29.5t108.5 -82.5q94 -112 94 -287q0 -234 -128 -363q-120 -123 -308 -123q-192 0 -306 127q-127 139 -127 408zM346 431.5q2 -112.5 43 -182t113 -69.5t110.5 68.5t38.5 190.5 t-40.5 179.5t-96.5 57.5q-96 0 -156 -64q-14 -68 -12 -180.5z" />
<glyph unicode="7" horiz-adv-x="856" d="M27 1114v234h794v-172q-223 -532 -436 -1176h-299q100 284 197.5 522t137.5 336q89 218 107 272z" />
<glyph unicode="8" horiz-adv-x="995" d="M57 407.5q0 124.5 64.5 201.5t171.5 106q-80 43 -137.5 119.5t-57.5 179t30 166t84 106.5q108 86 294 86t288.5 -86t102.5 -252q0 -123 -57.5 -199.5t-137.5 -119.5q106 -29 171 -106t65 -202t-33 -204.5t-91 -130.5q-111 -99 -316 -99q-313 0 -408 230q-33 80 -33 204.5 zM356 381q0 -96 38 -146.5t104 -50.5t103.5 50.5t37.5 146.5t-48 146.5t-134 50.5q-101 0 -101 -197zM393 1029.5q0 -50.5 2 -88.5t15 -71q33 -77 129 -77q58 0 62 144q1 38 1 90.5t-27.5 93t-77.5 40.5t-77 -40.5t-27 -91z" />
<glyph unicode="9" horiz-adv-x="983" d="M53 887q0 230 127 363q116 122 307 122q300 0 399 -292q34 -101 34 -262.5t-50.5 -303t-135.5 -248.5q-158 -197 -433 -305l-84 197q115 47 212 135t151 231q-98 -39 -177.5 -39t-143.5 29t-111 82q-95 109 -95 291zM330 905q0 -123 40.5 -179t95.5 -56q101 0 155 65 q16 78 14 189t-43 176t-113 65t-110.5 -68.5t-38.5 -191.5z" />
<glyph unicode=":" horiz-adv-x="509" d="M102 189.5q0 76.5 44 124.5t109 48t108 -48t43 -125t-43.5 -123t-107.5 -46t-108.5 46.5t-44.5 123zM102 821q0 78 44 125t109 47t108 -47t43 -125t-43.5 -124t-107.5 -46t-108.5 46t-44.5 124z" />
<glyph unicode=";" horiz-adv-x="509" d="M66 -246q84 154 84 228q0 39 -11.5 76.5t-11.5 86.5v11q0 66 38 108.5t83 42.5q145 0 145 -180q-11 -141 -135 -333q-35 -54 -68 -103zM102 821q0 78 44 125t109 47t108 -47t43 -125t-43.5 -124t-107.5 -46t-108.5 46t-44.5 124z" />
<glyph unicode="&#x3c;" horiz-adv-x="903" d="M96 629v94l664 405v-215l-369 -237l369 -242v-211z" />
<glyph unicode="=" horiz-adv-x="976" d="M86 311v213h803v-213h-803zM86 719v213h803v-213h-803z" />
<glyph unicode="&#x3e;" horiz-adv-x="903" d="M143 223v211l369 242l-369 237v215l664 -405v-94z" />
<glyph unicode="?" horiz-adv-x="770" d="M12 1384q12 6 37 20.5t64 27.5q103 36 201 36t169.5 -20.5t123.5 -62.5q114 -92 114 -265q0 -202 -159 -336q-94 -80 -126.5 -145.5t-32.5 -134.5l-219 -17q-4 24 -4 73t18.5 103t46 97t60.5 78.5t61 72.5q64 87 64 170.5t-40 116.5t-139 33t-188 -51zM143 150 q0 78 44 125t109 47t107.5 -47t42.5 -125t-43 -123t-107 -45t-108.5 45t-44.5 123z" />
<glyph unicode="@" horiz-adv-x="1632" d="M94 418q0 412 205 657q204 244 555 244q319 0 504 -208q186 -209 186 -583q0 -310 -133 -458q-93 -105 -229 -105q-68 0 -129.5 35t-83.5 109q-86 -144 -224 -144q-116 0 -193 101q-89 117 -89 340q0 224 89 352q80 114 198 114q63 0 112 -23.5t90 -41.5l9 72l174 -25 v-596q0 -53 13 -92t54 -39q61 0 97 96t36 271q0 307 -119.5 473t-363.5 166q-255 0 -398 -178q-149 -186 -149 -523.5t138.5 -516.5t406.5 -179q66 0 117 8t82 12l36 -176q-35 -6 -108.5 -18.5t-161.5 -12.5q-339 0 -533 239q-188 232 -188 630zM680 428q0 -287 123 -287 q73 0 129 103v411q-20 16 -49 38t-68 22q-135 0 -135 -287z" />
<glyph unicode="A" horiz-adv-x="1132" d="M23 0l374 1348h344l369 -1348h-301l-61 233h-377l-62 -233h-286zM414 430h291q-18 88 -40 181.5t-41 180.5q-47 209 -63 295q-10 -55 -27.5 -131.5t-37 -163.5t-41 -180.5t-41.5 -181.5z" />
<glyph unicode="B" horiz-adv-x="1048" d="M127 0v1348l344 12q244 0 356.5 -77t112.5 -269q0 -117 -49 -195t-111 -117q207 -67 207 -313q0 -205 -121 -304t-383 -99q-109 0 -206 7t-150 7zM399 197l66 -2q121 0 180.5 45t59.5 166q0 186 -224 186q-48 0 -82 -4v-391zM399 758l66 -2q162 0 195 131q8 31 8 64v14 q-4 94 -41 141t-146 47q-48 0 -82 -4v-391z" />
<glyph unicode="C" horiz-adv-x="976" d="M68 672q0 702 548 702q143 0 275 -49q27 -10 39 -14q-10 -53 -19.5 -107.5t-19.5 -107.5q-123 51 -218 51t-152.5 -30t-92.5 -88q-63 -104 -63 -357q0 -252 63 -358q70 -117 238 -117q102 0 225 51l39 -215q-12 -4 -39 -14.5t-67 -21.5q-102 -28 -208 -28 q-274 0 -411 173t-137 530z" />
<glyph unicode="D" horiz-adv-x="1138" d="M127 0v1348q49 0 142 6t224 6t241 -30t184 -106q153 -157 153 -552q0 -387 -153 -547q-74 -78 -183.5 -108.5t-240 -30.5t-224.5 7t-143 7zM412 211q23 -2 47 -2h51q141 0 204.5 115.5t63.5 352.5t-63.5 348.5t-206.5 111.5q-48 0 -96 -4v-922z" />
<glyph unicode="E" horiz-adv-x="921" d="M127 0v1348h729v-232h-442v-311h336v-217h-336v-357h442v-231h-729z" />
<glyph unicode="F" horiz-adv-x="868" d="M127 0v1348h704v-232h-417v-368h348v-218h-348v-530h-287z" />
<glyph unicode="G" horiz-adv-x="1064" d="M68 672q0 702 548 702q146 0 306 -49l45 -14q-10 -53 -19.5 -107.5t-19.5 -107.5q-61 26 -143.5 38.5t-144.5 12.5t-119.5 -30t-92.5 -88q-63 -104 -63 -357q0 -252 63 -358q70 -117 238 -117h28q13 0 29 2v358h-141v227h426v-751q-224 -64 -392 -64q-274 0 -411 173 t-137 530z" />
<glyph unicode="H" horiz-adv-x="1189" d="M127 0v1348h285v-564h366v564h283v-1348h-283v557h-366v-557h-285z" />
<glyph unicode="I" horiz-adv-x="540" d="M127 0v1348h285v-1348h-285z" />
<glyph unicode="J" horiz-adv-x="555" d="M-43 -338q4 53 7 105.5t7 105.5q63 6 105 68q41 29 57.5 87t16.5 175v1145h282v-1082q0 -361 -106 -494q-89 -114 -270 -114q-67 0 -99 4z" />
<glyph unicode="K" horiz-adv-x="1103" d="M127 0v1348h285v-590l329 590h318l-381 -611q104 -186 210.5 -368.5t211.5 -368.5h-338l-350 657v-657h-285z" />
<glyph unicode="L" horiz-adv-x="843" d="M127 0v1348h285v-1117h399l-18 -231h-666z" />
<glyph unicode="M" horiz-adv-x="1417" d="M51 0l129 1348h277q95 -275 168 -543t84 -307q10 39 30.5 109.5t45 155.5t52 176t53.5 173q63 205 75 236h278l123 -1348h-287q-2 35 -7 99.5t-10 145.5t-12.5 171t-12.5 173t-10 154.5t-7 114.5l-219 -743h-195q-60 188 -96.5 312t-59.5 197q-47 157 -65 234l-57 -858 h-277z" />
<glyph unicode="N" horiz-adv-x="1183" d="M127 0v1348h256l426 -846h4l-6 149v697h250v-1348h-254l-430 850h-2l6 -152v-698h-250z" />
<glyph unicode="O" horiz-adv-x="1167" d="M68 674q0 358 133 528t381 170t382 -170t134 -528t-134.5 -529.5t-381.5 -171.5q-248 0 -381 171t-133 530zM360 674q0 -225 51.5 -349t171.5 -124t172 124t52 349q0 471 -223.5 471t-223.5 -471z" />
<glyph unicode="P" horiz-adv-x="1015" d="M127 0v1348l352 12q262 0 374 -117t112 -344q0 -241 -135 -357q-64 -55 -148 -78.5t-158.5 -23.5t-120.5 4v-444h-276zM403 653h76q88 0 143.5 53.5t55.5 192.5q0 244 -189 244h-41q-22 0 -45 -2v-488z" />
<glyph unicode="Q" horiz-adv-x="1167" d="M68 674q0 358 133 528t381 170t382 -170t134 -528q0 -481 -246 -631q93 -84 223 -137l-125 -189q-117 34 -250 137q-61 47 -118 119q-248 0 -381 171t-133 530zM360 674q0 -225 51.5 -349t171.5 -124t172 124t52 349q0 471 -223.5 471t-223.5 -471z" />
<glyph unicode="R" horiz-adv-x="1058" d="M127 0v1348l362 12q248 0 370 -98.5t122 -337.5q0 -226 -141 -329q-41 -30 -84 -46l262 -549h-301l-215 512l-105 4v-516h-270zM397 723l127 -6q170 0 170 211q0 109 -43 162t-141 53q-51 0 -113 -4v-416z" />
<glyph unicode="S" horiz-adv-x="917" d="M47 74l66 207q14 -6 41.5 -19.5t63.5 -27.5q95 -35 145.5 -35t86 9t64.5 28q64 40 64 106.5t-38 108t-94.5 78t-122 75.5t-121.5 90q-132 119 -132 294t113.5 279.5t303 104.5t329.5 -68q30 -14 46 -20l-65 -207q-16 6 -44 19.5t-63 27.5q-92 35 -148.5 35t-89 -15.5 t-54.5 -37.5q-40 -43 -40 -100t38 -102.5t94.5 -83.5t122 -76.5t121.5 -87.5q132 -116 132 -293t-112.5 -283.5t-335.5 -106.5q-171 0 -323 79q-32 16 -48 22z" />
<glyph unicode="T" horiz-adv-x="903" d="M31 1116v232h841l-2 -232h-276v-1116h-285v1116h-278z" />
<glyph unicode="U" horiz-adv-x="1134" d="M111 633v715h284v-715q0 -241 22.5 -311t56.5 -95.5t93 -25.5q110 0 145 104q25 77 25 328v715h281v-715q0 -361 -100 -509q-103 -151 -351 -151q-247 0 -352 151q-104 149 -104 509z" />
<glyph unicode="V" horiz-adv-x="1083" d="M25 1348h292l205 -928l25 -203l24 203l205 928h293l-377 -1348h-291z" />
<glyph unicode="W" horiz-adv-x="1513" d="M20 1348h287l166 -912l176 805h221l177 -805l167 912h277l-281 -1348h-268l-184 858l-193 -858h-264z" />
<glyph unicode="X" horiz-adv-x="1101" d="M6 0l379 678l-362 670h327q12 -29 40 -91.5t60 -134.5q88 -203 101 -239q21 60 106.5 248t98.5 217h323l-362 -672q119 -210 379 -676h-336q-12 29 -42 92.5t-62 135.5q-90 197 -105 245q-14 -37 -45 -104.5t-64 -140.5q-49 -110 -106 -228h-330z" />
<glyph unicode="Y" horiz-adv-x="1081" d="M-4 1348h305q35 -94 72 -191.5t68.5 -184.5t58 -159t41.5 -113l239 648h305q-92 -207 -183 -412t-183 -410l-35 -82v-444h-285v444l-37 82q-92 205 -183 410t-183 412z" />
<glyph unicode="Z" horiz-adv-x="952" d="M57 0v184l504 934h-489v230h807v-185q-125 -236 -250 -467t-252 -467h510v-229h-830z" />
<glyph unicode="[" horiz-adv-x="636" d="M160 -295v1854h456v-189h-225v-1476h225v-189h-456z" />
<glyph unicode="\" horiz-adv-x="800" d="M-10 1470h248q436 -1424 561 -1746h-248q-91 234 -284 850t-277 896z" />
<glyph unicode="]" horiz-adv-x="636" d="M23 -106h225v1476h-225v186h456v-1851h-456v189z" />
<glyph unicode="^" horiz-adv-x="886" d="M98 1073l310 311h73l310 -311l-117 -121q-168 157 -230 211q-121 -109 -229 -211z" />
<glyph unicode="_" horiz-adv-x="980" d="M23 -158h935v-204h-935v204z" />
<glyph unicode="`" horiz-adv-x="735" d="M104 1477l154 149l285 -342l-119 -110z" />
<glyph unicode="a" horiz-adv-x="956" d="M47 293q0 195 123 278.5t367 83.5l47 -4v25q0 166 -106 186q-32 6 -70 6q-133 0 -256 -45l-31 189q197 63 334 63q211 0 307 -99t96 -308v-668h-254q-4 29 -7 57.5t-7 57.5q-10 -10 -28.5 -33t-49.5 -46q-80 -61 -184 -61q-193 0 -258 175q-23 59 -23 143zM313 326 q0 -150 119 -150q83 0 131 62q12 16 21 26v232h-28q-13 0 -28 2q-117 0 -166 -37t-49 -135z" />
<glyph unicode="b" d="M100 0v1473l277 40v-581q143 143 278 143q228 0 305 -293q27 -100 27 -239t-29.5 -243.5t-79.5 -174.5q-101 -139 -260 -139q-124 0 -218 90q-25 24 -44 45l-22 -121h-234zM377 279q81 -60 129 -60q100 0 148 69.5t48 240.5t-40.5 242t-120.5 71q-72 0 -139 -68 q-17 -16 -25 -29v-466z" />
<glyph unicode="c" horiz-adv-x="788" d="M57 510q0 287 114 426t331 139q121 0 246 -43l-33 -203q-83 33 -179.5 33t-145 -81t-48.5 -262t50 -255t140 -74q63 0 114.5 24t74.5 32l63 -176q-14 -6 -40.5 -21.5t-64.5 -32.5q-96 -41 -196 -41q-426 0 -426 535z" />
<glyph unicode="d" d="M55 512q0 150 35 258.5t94.5 175t137 96t161.5 29.5t185 -45v447l274 40v-1513h-233l-17 123q-137 -148 -307 -148q-226 0 -303 287q-27 100 -27 250zM342 528q0 -258 91 -306q30 -15 76 -15t90 31.5t69 66.5v518q-67 37 -129 37q-100 0 -148.5 -73.5t-48.5 -258.5z" />
<glyph unicode="e" horiz-adv-x="935" d="M57 498q0 279 125 436q113 141 299 141q281 0 368 -268q30 -92 30 -199.5t-13 -165.5h-534q2 -137 61.5 -197.5t144.5 -60.5t151.5 28t103.5 44l55 -180q-152 -101 -361 -101q-190 0 -303 123q-127 138 -127 400zM332 614h280q0 212 -80 252q-24 13 -52 13t-54.5 -13.5 t-47.5 -43.5q-46 -70 -46 -208z" />
<glyph unicode="f" horiz-adv-x="632" d="M25 850v203h112v123q0 188 65.5 274t207.5 86q98 0 150 -16.5t73 -24.5l-4 -98t-6 -99q-57 19 -114.5 19t-76 -39t-18.5 -141v-84h188v-203h-188v-850h-277v850h-112z" />
<glyph unicode="g" d="M55 489q0 277 111 433q102 143 256 143q90 0 149.5 -42t116.5 -114q14 80 21 144h233v-1139q0 -205 -94 -306.5t-299 -101.5q-148 0 -283 44q-35 12 -59 20l31 188q132 -45 262 -45q84 0 113 27q57 52 57 166v211h-2q-72 -90 -192 -129q-42 -13 -101.5 -13t-119.5 31 t-105 94q-95 137 -95 389zM342 552q0 -122 10 -181.5t29.5 -95t47.5 -51t76 -15.5t94 37t69 71v418q-55 59 -92 81t-82 22q-96 0 -124 -82t-28 -204z" />
<glyph unicode="h" horiz-adv-x="1036" d="M100 0v1473l277 40v-595h4q10 10 33.5 35.5t59.5 52.5q90 69 198 69q145 0 206.5 -90t61.5 -276v-709h-276v641q0 113 -23 154t-86 41q-86 0 -178 -115v-721h-277z" />
<glyph unicode="i" horiz-adv-x="489" d="M92 1374q0 74 45 121t111 47t110.5 -47t44.5 -121t-45 -120t-110 -46q-66 0 -111 46t-45 120zM106 0v1032l277 41v-1073h-277z" />
<glyph unicode="j" horiz-adv-x="499" d="M-45 -473l12 203q85 8 116 52q34 50 34 173v1077l274 41v-1145q0 -323 -187 -390q-63 -23 -118.5 -23t-80.5 4zM96 1374q0 74 46 121t110.5 47t110 -47t45.5 -121t-45.5 -120t-110 -46t-110.5 46t-46 120z" />
<glyph unicode="k" horiz-adv-x="974" d="M102 0v1473l275 40v-917l266 457h309l-338 -469l375 -584h-330l-282 502v-502h-275z" />
<glyph unicode="l" horiz-adv-x="477" d="M100 0v1473l277 40v-1513h-277z" />
<glyph unicode="m" horiz-adv-x="1468" d="M106 0v1053h244l12 -142q12 14 33 41t53 54q78 69 173.5 69t150.5 -34.5t78 -127.5q67 101 169 143q44 19 99 19q135 0 194.5 -83t59.5 -281v-711h-274v688q0 70 -16.5 109t-69.5 39q-47 0 -92 -46q-22 -21 -50 -69v-721h-264v688q0 70 -16.5 109t-69.5 39 q-84 0 -141 -115v-721h-273z" />
<glyph unicode="n" horiz-adv-x="1040" d="M106 0v1053h244l12 -135h5l35 36q122 121 270.5 121t210 -90t61.5 -276v-709h-276v641q0 113 -22.5 154t-86.5 41q-86 0 -178 -115v-721h-275z" />
<glyph unicode="o" horiz-adv-x="1017" d="M57 525q0 550 451 550q327 0 420 -297q33 -105 33 -253.5t-33 -252.5t-92 -170q-114 -127 -328 -127q-451 0 -451 550zM342 525.5q0 -185.5 40 -266.5t126 -81t126 81t40 266t-40 266t-126 81t-126 -80.5t-40 -266z" />
<glyph unicode="p" d="M100 -469v1522h256l13 -140h4q72 103 181 145q46 17 107.5 17t122 -31.5t105.5 -97.5q98 -142 98 -405q0 -281 -115 -429q-108 -137 -288 -137q-111 0 -209 41v-485h-275zM377 201q57 -27 121 -27q104 0 154 79t50 263t-40.5 255t-120.5 71q-48 0 -85 -31 q-56 -46 -79 -86v-524z" />
<glyph unicode="q" d="M55 506q0 266 111 418q104 141 262 141h5q125 0 239 -156q1 8 16 144h254v-1522h-272v586h-2q-72 -92 -189 -129q-43 -13 -102.5 -13t-119.5 30t-105 95q-97 136 -97 406zM342 570q0 -132 9 -194.5t29 -99.5q36 -67 118 -67q96 0 170 108v418q-95 113 -175 113 t-115.5 -73t-35.5 -205z" />
<glyph unicode="r" horiz-adv-x="688" d="M106 0v1053h244l15 -142h2q35 72 96 119t113.5 47t97.5 -18l-21 -244q-18 4 -49 13.5t-66.5 9.5t-70.5 -26t-86 -87v-725h-275z" />
<glyph unicode="s" horiz-adv-x="770" d="M37 57l47 185q12 -4 36.5 -15.5t57.5 -22.5q84 -28 141 -28t90 18.5t33 69.5t-27.5 85t-70.5 65.5t-91 66.5t-91 77q-99 97 -99 228t92.5 210t249 79t281.5 -43q-4 -51 -8 -101l-8 -100q-23 6 -84.5 22.5t-124.5 16.5q-131 0 -131 -82q0 -39 29.5 -70.5t73.5 -62 t95.5 -64.5t95.5 -76q103 -98 103 -226q0 -217 -197 -289q-69 -25 -150 -25t-134 10.5t-94 24.5q-59 19 -115 47z" />
<glyph unicode="t" horiz-adv-x="677" d="M25 850v203h112v254l275 41v-295h225v-203h-225v-506q0 -68 16 -100.5t64 -32.5q47 0 82.5 14.5t46.5 16.5l26 -197q-12 -4 -33.5 -15.5t-52.5 -23.5q-80 -31 -162 -31q-143 0 -202.5 75t-59.5 255v545h-112z" />
<glyph unicode="u" horiz-adv-x="1038" d="M96 342v711h277v-574q0 -161 15 -199t38 -50.5t55.5 -12.5t59 13.5t49.5 31.5q26 21 69 72v719h277v-1053h-240l-16 141l-57 -51q-12 -10 -34 -29.5t-55 -38.5q-83 -47 -167 -47q-145 0 -208 90.5t-63 276.5z" />
<glyph unicode="v" horiz-adv-x="958" d="M18 1053h283l100 -437l76 -438l76 438l100 437h283l-309 -1053h-299z" />
<glyph unicode="w" horiz-adv-x="1435" d="M23 1053h272l154 -713l159 713h230l168 -713l145 713h262l-278 -1053h-263l-159 684l-172 -684h-252z" />
<glyph unicode="x" horiz-adv-x="935" d="M10 0l299 545l-278 508h297q10 -20 29.5 -69.5t42.5 -105.5q55 -137 73 -192q3 0 28 66.5t43.5 112.5t34 87t25.5 70t12 31h289l-280 -516l299 -537h-295q-47 89 -101.5 219.5t-66.5 165.5q-28 -80 -160 -385h-291z" />
<glyph unicode="y" horiz-adv-x="940" d="M14 1053h289q111 -430 172 -758q12 66 37 175.5t50 223.5q39 172 87 359h279l-346 -1112q-57 -179 -167 -287q-46 -45 -90 -70.5t-77 -44.5l-123 168q12 10 42 29.5t65 52.5q88 84 114 188z" />
<glyph unicode="z" horiz-adv-x="784" d="M45 0v178l375 664h-350v211h659v-172l-379 -670h385v-211h-690z" />
<glyph unicode="{" horiz-adv-x="675" d="M88 520v195q68 5 97 28q53 43 53 127v312q0 267 90 351q47 44 124.5 58.5t190.5 14.5v-176q-127 0 -157 -58q-15 -31 -17 -78t-2 -114v-322q0 -178 -148 -240q147 -68 148 -245v-328q0 -74 2 -122t18.5 -76.5t52 -40t103.5 -11.5v-176q-121 0 -198.5 17.5t-124 64.5 t-64.5 130t-18 214v252q0 127 -34 173t-116 50z" />
<glyph unicode="|" horiz-adv-x="546" d="M164 -469v2050h221v-2050h-221z" />
<glyph unicode="}" horiz-adv-x="675" d="M31 -205q124 0 157 53q17 29 19 74t2 111v340q0 172 147 239q-147 68 -147 246v322q0 74 -2 122t-19 76q-32 52 -157 52v176q117 0 195.5 -15.5t125.5 -60.5t66.5 -125t19.5 -211v-272q0 -123 36 -166q33 -41 114 -45v-195q-81 -4 -106 -35q-44 -53 -44 -172v-276 q0 -264 -94 -346q-49 -43 -127 -55.5t-186 -12.5v176z" />
<glyph unicode="~" horiz-adv-x="1075" d="M78 719q86 119 202 173q46 21 102 21t101 -24.5t85 -55t77 -55t75 -24.5t65.5 10t48.5 24q43 26 63 54l98 -125q-59 -81 -100 -117q-91 -78 -182 -78q-59 0 -104.5 24.5t-85.5 53.5t-77.5 53.5t-75.5 24.5t-69 -11.5t-55 -26.5q-42 -25 -68 -58q-44 62 -100 137z" />
<glyph unicode="&#xa1;" horiz-adv-x="573" d="M131 892q0 77 43 125t109 48t109.5 -48t43.5 -125t-44 -124t-109 -47q-66 0 -109 47t-43 124zM133 -393l35 907h246q2 -36 32 -907h-313z" />
<glyph unicode="&#xa2;" horiz-adv-x="808" d="M59 657q0 227 81 356.5t227 168.5q-5 132 -5 217h205q0 -99 -4 -205q115 -7 193 -41q-16 -79 -35 -197q-82 33 -180 33t-147.5 -76.5t-49.5 -246.5q0 -312 188 -312q87 0 195 54l64 -172q-12 -4 -33 -16.5t-50 -27.5q-64 -32 -145 -45q4 -98 4 -198h-205q0 73 5 203 q-145 33 -226.5 155.5t-81.5 349.5z" />
<glyph unicode="&#xa3;" horiz-adv-x="1007" d="M82 618v164h123q-8 90 -8 205q0 193 98 289t285 96q161 0 313 -61l-35 -197q-116 43 -206.5 43t-127.5 -44t-37 -140q0 -41 7 -191h284v-164h-270q4 -66 4 -185t-35 -220h479v-213h-856v180q95 58 123 152v131q0 87 -4 155h-137z" />
<glyph unicode="&#xa5;" horiz-adv-x="1030" d="M41 1348h307l176 -553q83 230 189 553h280q-167 -393 -260 -586h170v-152h-223q-16 -64 -27 -127h250v-151h-256v-332h-278v332h-265v151h258l-26 127h-232v152h172q-59 147 -117.5 292.5t-117.5 293.5z" />
<glyph unicode="&#xa8;" horiz-adv-x="874" d="M68 1376q0 70 39.5 113t99.5 43q59 0 97 -43t38 -113t-38 -112.5t-97 -42.5t-99 43t-40 112zM459 1376q0 70 39 113t98 43t99 -43t40 -113t-40 -112.5t-99 -42.5t-98 43t-39 112z" />
<glyph unicode="&#xa9;" horiz-adv-x="1409" d="M98 672q0 317 174 512q171 192 433 192q261 0 432 -192q174 -195 174 -512q0 -315 -173 -509q-171 -192 -433 -192q-129 0 -241 50.5t-193 141.5q-173 194 -173 509zM260 672q0 -247 128 -396t314 -149q189 0 316 149q131 152 131 396q0 242 -131 397q-126 150 -316 150 q-187 0 -314 -150q-128 -153 -128 -397zM442 668q0 379 289 379q74 0 113 -13.5t59 -21.5l-12 -66t-14 -67q-47 20 -119 20t-108 -51t-36 -180t36 -180.5t105 -51.5t122 21q6 -26 26 -133q-20 -8 -59 -21.5t-113 -13.5q-289 0 -289 379z" />
<glyph unicode="&#xaa;" horiz-adv-x="798" d="M53 760q0 230 225 276q68 13 111 12t55.5 -2.5t24.5 -1.5v35q0 76 -33 100.5t-86 24.5q-119 0 -215 -37l-18 160q143 51 287.5 51t211 -80.5t66.5 -234.5v-551h-182l-13 84q-25 -33 -76 -68.5t-140 -35.5t-153.5 63t-64.5 205zM262 776q0 -53 22.5 -91t63.5 -38 q71 0 121 72v199h-88q-63 -4 -91 -46.5t-28 -95.5z" />
<glyph unicode="&#xab;" horiz-adv-x="978" d="M86 549l307 387l127 -111l-201 -274l203 -275l-129 -120zM467 549l305 385l125 -111l-197 -272l199 -272q-33 -31 -63.5 -62t-63.5 -59q-236 304 -305 391z" />
<glyph unicode="&#xac;" horiz-adv-x="993" d="M98 555v217h781v-563h-226v346h-555z" />
<glyph unicode="&#xad;" horiz-adv-x="653" d="M74 463v221h506v-221h-506z" />
<glyph unicode="&#xae;" horiz-adv-x="1212" d="M98 979q0 271 146 438q141 160 362 160q219 0 360 -160q146 -167 146 -438t-146 -439q-140 -161 -360 -161q-222 0 -362 161q-146 168 -146 439zM231 979q0 -216 108 -345q101 -120 265 -120q162 0 266 120q109 126 109 345q0 220 -109 344q-107 123 -266 123 q-161 0 -265 -123q-108 -127 -108 -344zM430 676v604l160 8q104 0 161.5 -40t57.5 -148q0 -135 -123 -178l141 -246h-139l-92 184q-29 10 -51 23v-207h-115zM545 983q51 0 97 25.5t46 81t-20.5 76t-67.5 20.5h-55v-203z" />
<glyph unicode="&#xb1;" horiz-adv-x="1015" d="M100 14v215h813v-215h-813zM129 688v215h268v291h226v-291h266v-215h-266v-293h-226v293h-268z" />
<glyph unicode="&#xb4;" horiz-adv-x="735" d="M207 1284l285 342l155 -149l-321 -303z" />
<glyph unicode="&#xb5;" d="M100 -469v1522h277v-574q0 -156 27.5 -215t103.5 -59q62 0 108 55q39 47 46 125v668h276v-1053h-248l-10 119q-4 0 -18.5 -22.5t-40 -49.5t-64.5 -49.5t-91 -22.5t-95 50v-494h-271z" />
<glyph unicode="&#xb8;" horiz-adv-x="724" d="M170 -422l55 107q10 -4 38 -22.5t63 -18.5q86 0 86 73q0 27 -26 43.5t-54.5 29.5t-50 25.5t-15.5 34.5l47 154h123q-2 -12 -11 -32.5t-3 -43.5q2 -6 28 -17t51 -26.5t47 -40.5q48 -55 48 -144t-67.5 -140.5t-172.5 -51.5q-85 0 -164 54q-16 12 -22 16z" />
<glyph unicode="&#xba;" horiz-adv-x="806" d="M61 936q0 229 93.5 332.5t248.5 103.5q156 0 249 -103.5t93 -332.5q0 -332 -201 -412q-63 -26 -141 -26q-245 0 -317 240q-25 83 -25 198zM270 935q0 -261 133 -261q134 0 134 261t-134 261q-133 0 -133 -261z" />
<glyph unicode="&#xbb;" horiz-adv-x="978" d="M78 815l127 119l305 -389l-305 -387l-125 110l196 275zM457 817l127 119l309 -391l-309 -389l-125 110q93 134 198 277z" />
<glyph unicode="&#xbf;" horiz-adv-x="749" d="M16 -80q0 195 159 331q96 82 127.5 144t31.5 127v13l221 16l2 -39q0 -166 -124 -306q-77 -87 -100.5 -141.5t-23.5 -111.5q0 -146 154 -146q105 0 213 54l49 -203q-129 -86 -319 -86q-170 0 -275 83q-115 91 -115 265zM291 892q0 77 43 125t107 48t108.5 -48t44.5 -125 t-44 -123t-109 -46t-107.5 46t-42.5 123z" />
<glyph unicode="&#xf7;" horiz-adv-x="1015" d="M90 508v215h834v-215h-834zM356 235q0 77 44 122.5t108 45.5q63 0 106 -45.5t43 -122.5t-43 -123t-106 -46t-107.5 46t-44.5 123zM356 1065q0 76 43 123t107 47q63 0 106 -47t43 -123t-43 -122t-106 -46t-106.5 46t-43.5 122z" />
<glyph unicode="&#x2c6;" horiz-adv-x="827" d="M96 1374l244 232h133l258 -230l-100 -145l-217 158l-219 -158z" />
<glyph unicode="&#x2da;" horiz-adv-x="878" d="M174 1453q0 101 61.5 167t155.5 66q93 0 153 -66q64 -69 64 -168.5t-61.5 -166t-156.5 -66.5t-155.5 66.5t-60.5 167.5zM299 1454q0 -47 25.5 -77.5t66.5 -30.5t65.5 30.5t24.5 77.5t-24.5 77t-65.5 30t-66.5 -30t-25.5 -77z" />
<glyph unicode="&#x2dc;" horiz-adv-x="882" d="M63 1339q18 20 41 53t52 62q74 72 159 72q63 0 118.5 -30t84.5 -43t58 -13t51 9t41 21q37 26 47 41l104 -81q-16 -23 -37.5 -55t-51.5 -63q-72 -73 -157 -73q-58 0 -115 27.5t-86.5 41t-58.5 13.5t-52 -8t-41 -21q-40 -26 -54 -45z" />
<glyph unicode="&#x401;" horiz-adv-x="921" d="M127 0v1348h729q-8 -107 -20 -232h-422v-311h336v-217h-336v-357h440l18 -231h-745zM143 1655q0 70 40 112.5t100 42.5q59 0 97 -42.5t38 -112.5t-38 -113t-97 -43t-99.5 43t-40.5 113zM535 1655q0 70 38.5 112.5t98.5 42.5q59 0 99 -42.5t40 -112.5t-40 -113t-99 -43 t-98 43t-39 113z" />
<glyph unicode="&#x402;" horiz-adv-x="1280" d="M29 1118v230h866v-230h-289v-358q14 6 38 20.5t54 29.5q78 38 158 38q350 0 350 -502q0 -425 -296 -525q-95 -32 -214 -40v223q94 10 159 86t65 229q0 183 -34 240q-18 29 -43.5 37t-60.5 8q-84 0 -176 -57v-547h-287v1118h-290z" />
<glyph unicode="&#x403;" horiz-adv-x="808" d="M127 0v1348h657v-246h-372v-1102h-285zM276 1548l285 342l154 -149l-320 -303z" />
<glyph unicode="&#x404;" horiz-adv-x="976" d="M68 672q0 702 548 702q143 0 275 -49q27 -10 39 -14q-10 -53 -19.5 -107.5t-19.5 -107.5q-123 51 -225 51q-152 0 -217.5 -86t-79.5 -262h374v-230h-376q10 -190 76.5 -281t222.5 -91q102 0 225 51l39 -215q-12 -4 -39 -14.5t-67 -21.5q-102 -28 -208 -28 q-274 0 -411 173t-137 530z" />
<glyph unicode="&#x405;" horiz-adv-x="917" d="M47 74l66 207q14 -6 41.5 -19.5t63.5 -27.5q95 -35 145.5 -35t86 9t64.5 28q64 40 64 106.5t-38 108t-94.5 78t-122 75.5t-121.5 90q-132 119 -132 294t113.5 279.5t303 104.5t329.5 -68q30 -14 46 -20l-65 -207q-16 6 -44 19.5t-63 27.5q-92 35 -148.5 35t-89 -15.5 t-54.5 -37.5q-40 -43 -40 -100t38 -102.5t94.5 -83.5t122 -76.5t121.5 -87.5q132 -116 132 -293t-112.5 -283.5t-335.5 -106.5q-171 0 -323 79q-32 16 -48 22z" />
<glyph unicode="&#x406;" horiz-adv-x="540" d="M127 0v1348h285v-1348h-285z" />
<glyph unicode="&#x407;" horiz-adv-x="540" d="M-63 1640q0 70 39.5 113t98 43t96.5 -43t38 -113t-38 -112.5t-96 -42.5t-98 43t-40 112zM127 0v1348h285v-1348h-285zM328 1640q0 70 39 113t98 43t98 -43t39 -113t-39 -112.5t-98 -42.5t-98 43t-39 112z" />
<glyph unicode="&#x408;" horiz-adv-x="555" d="M-43 -338q4 53 7 105.5t7 105.5q63 6 105 68q41 29 57.5 87t16.5 175v1145h282v-1082q0 -361 -106 -494q-89 -114 -270 -114q-67 0 -99 4z" />
<glyph unicode="&#x409;" horiz-adv-x="1699" d="M41 -8l4 209q59 4 91 28.5t44 94.5q52 290 82 1024h787v-492q46 8 150.5 8t184.5 -22.5t138 -72.5q120 -105 120 -320q0 -232 -142 -351q-134 -112 -372 -112q-121 0 -216 7t-148 7v1108h-246q-20 -455 -90 -858q-27 -155 -104 -213q-68 -51 -209 -51q-41 0 -74 6z M1049 203q27 -2 52 -2h50q96 0 152.5 60.5t56.5 170.5q0 225 -201 225q-80 0 -110 -6v-448z" />
<glyph unicode="&#x40a;" horiz-adv-x="1728" d="M127 0v1348h285v-560h366v560h287v-492q46 8 151 8t185 -22.5t137 -72.5q121 -106 121 -320q0 -231 -143 -351q-134 -112 -371 -112q-121 0 -216 7t-149 7l-2 561h-366v-561h-285zM1065 203q27 -2 53 -2h49q96 0 152.5 60.5t56.5 170.5q0 225 -200 225q-81 0 -111 -6 v-448z" />
<glyph unicode="&#x40b;" horiz-adv-x="1300" d="M29 1118v230h866v-230h-289v-348q20 4 48 16.5t62 24.5q94 33 156 33q152 0 236 -91t84 -284v-469h-283v434q0 90 -32.5 128t-86 38t-92.5 -14l-92 -35v-551h-287v1118h-290z" />
<glyph unicode="&#x40c;" horiz-adv-x="1103" d="M127 0v1348h285v-590l329 590h318l-381 -611q104 -186 210.5 -368.5t211.5 -368.5h-338l-350 657v-657h-285zM387 1563l285 344l153 -152l-319 -301z" />
<glyph unicode="&#x40e;" horiz-adv-x="1069" d="M12 1348h305q33 -106 69 -216t68 -210q80 -254 97 -318l29 92q15 66 89 316t99 336h295l-369 -1010q-81 -219 -167 -299q-38 -35 -81 -39t-79.5 0t-75.5 6v211q74 -4 97 57q9 23 9 47.5t-4 36.5zM238 1702q35 12 68.5 25.5t68.5 25.5q0 -36 33 -64q61 -53 141 -53 q111 0 161 84q11 19 11 33l137 -47q0 -92 -77 -165q-85 -81 -232 -81t-234 78q-77 69 -77 164z" />
<glyph unicode="&#x40f;" horiz-adv-x="1177" d="M127 0v1348h285v-1112h354v1112h283v-1348h-338v-322h-242v322h-342z" />
<glyph unicode="&#x410;" horiz-adv-x="1132" d="M23 0l374 1348h27q14 0 29 -2v2h288l369 -1348h-301l-61 233h-377l-62 -233h-286zM414 430h291q-18 88 -40 181.5t-41 180.5q-47 209 -63 295q-10 -55 -27.5 -131.5t-37 -163.5t-41 -180.5t-41.5 -181.5z" />
<glyph unicode="&#x411;" horiz-adv-x="1064" d="M127 0v1348h799v-234h-514v-272q35 6 159 6q435 0 435 -408q0 -231 -144 -348q-130 -106 -370 -106q-121 0 -216.5 7t-148.5 7zM412 203q27 -2 52 -2h50q96 0 152.5 57t56.5 173t-54.5 164t-140.5 48t-116 -6v-434z" />
<glyph unicode="&#x412;" horiz-adv-x="1048" d="M127 0v1348l344 12q244 0 356.5 -77t112.5 -269q0 -117 -49 -195t-111 -117q207 -67 207 -313q0 -205 -121 -304t-383 -99q-109 0 -206 7t-150 7zM399 197l66 -2q121 0 180.5 45t59.5 166q0 186 -224 186q-48 0 -82 -4v-391zM399 768q36 4 89.5 4t101.5 6q78 78 78 201 q0 160 -154 172h-115v-383z" />
<glyph unicode="&#x413;" horiz-adv-x="808" d="M127 0v1348h657v-246h-372v-1102h-285z" />
<glyph unicode="&#x414;" horiz-adv-x="1232" d="M35 215q63 10 106 33q92 151 111 718q6 175 14 382h801v-1112h123v-547h-246v311h-663v-303h-246v518zM393 236h393v872h-268q-9 -365 -25 -507q-30 -270 -100 -365z" />
<glyph unicode="&#x415;" horiz-adv-x="921" d="M127 0v1348h729v-232h-442v-311h336v-217h-336v-357h442v-231h-729z" />
<glyph unicode="&#x416;" horiz-adv-x="1677" d="M12 0l422 737l-381 611h318l329 -590v590h285v-590l330 590h317l-381 -611q104 -186 211 -368.5t211 -368.5h-338l-350 657v-657h-285v657l-350 -657h-338z" />
<glyph unicode="&#x417;" horiz-adv-x="954" d="M16 80l76 196q10 -4 36 -16t62 -24q95 -33 188 -33t153.5 46t60.5 157q0 174 -217 174l-150 -2v206h70q81 0 162 23q42 31 57 55q41 60 41 127q0 156 -197 156q-108 0 -208 -37q-21 -8 -27 -10l-49 209q152 65 350.5 65t312 -86t113.5 -252q0 -123 -57.5 -199.5 t-137.5 -119.5q106 -29 171 -106t65 -202t-36 -204.5t-99 -130.5q-122 -99 -346 -99q-130 0 -266 49q-50 19 -81.5 36.5t-46.5 21.5z" />
<glyph unicode="&#x418;" horiz-adv-x="1187" d="M127 0v1348h270v-686q0 -43 -4 -93.5t-4 -72.5l428 852h242v-1348h-271v680l11 168h-2l-428 -848h-242z" />
<glyph unicode="&#x419;" horiz-adv-x="1187" d="M127 0v1348h270v-686q0 -43 -4 -93.5t-4 -72.5l428 852h242v-1348h-271v680l11 168h-2l-428 -848h-242zM291 1702q35 12 68.5 25.5t68.5 25.5q0 -37 32 -64q61 -53 140 -53q78 0 130 46q42 35 42 71l137 -47q0 -94 -75 -165q-87 -81 -234 -81q-146 0 -233 78 q-76 68 -76 164z" />
<glyph unicode="&#x41a;" horiz-adv-x="1103" d="M127 0v1348h285v-590l329 590h318l-381 -611q104 -186 210.5 -368.5t211.5 -368.5h-338l-350 657v-657h-285z" />
<glyph unicode="&#x41b;" horiz-adv-x="1175" d="M41 -8l4 209q59 4 95 36.5t50 110.5q47 333 72 1000h785v-1348h-283v1108h-246q-17 -379 -59 -762q-34 -292 -229 -342q-62 -16 -113.5 -16t-75.5 4z" />
<glyph unicode="&#x41c;" horiz-adv-x="1417" d="M51 0l129 1348h277q95 -275 168 -543t84 -307q10 39 30.5 109.5t45 155.5t52 176t53.5 173q63 205 75 236h278l123 -1348h-287q-2 35 -7 99.5t-10 145.5t-12.5 171t-12.5 173t-10 154.5t-7 114.5l-219 -743h-195q-60 188 -96.5 312t-59.5 197q-47 157 -65 234l-57 -858 h-277z" />
<glyph unicode="&#x41d;" horiz-adv-x="1189" d="M127 0v1348h285v-564h366v564h283v-1348h-283v557h-366v-557h-285z" />
<glyph unicode="&#x41e;" horiz-adv-x="1167" d="M68 674q0 358 133 528t381 170t382 -170t134 -528t-134.5 -529.5t-381.5 -171.5q-248 0 -381 171t-133 530zM360 674q0 -225 51.5 -349t171.5 -124t172 124t52 349q0 471 -223.5 471t-223.5 -471z" />
<glyph unicode="&#x41f;" horiz-adv-x="1177" d="M127 0v1348h922v-1348h-283v1112h-354v-1112h-285z" />
<glyph unicode="&#x420;" horiz-adv-x="1015" d="M127 0v1348l352 12q262 0 374 -117t112 -344q0 -241 -135 -357q-64 -55 -148 -78.5t-158.5 -23.5t-120.5 4v-444h-276zM403 653h76q88 0 143.5 53.5t55.5 192.5q0 244 -189 244h-41q-22 0 -45 -2v-488z" />
<glyph unicode="&#x421;" horiz-adv-x="976" d="M68 672q0 702 548 702q143 0 275 -49q27 -10 39 -14q-10 -53 -19.5 -107.5t-19.5 -107.5q-123 51 -218 51t-152.5 -30t-92.5 -88q-63 -104 -63 -357q0 -252 63 -358q70 -117 238 -117q102 0 225 51l39 -215q-12 -4 -39 -14.5t-67 -21.5q-102 -28 -208 -28 q-274 0 -411 173t-137 530z" />
<glyph unicode="&#x422;" horiz-adv-x="903" d="M31 1116v232h841l-2 -232h-276v-1116h-285v1116h-278z" />
<glyph unicode="&#x423;" horiz-adv-x="1069" d="M12 1348h305q33 -106 69 -216t68 -210q80 -254 97 -318l29 92q15 66 89 316t99 336h295l-369 -1010q-81 -219 -167 -299q-38 -35 -81 -39t-79.5 0t-75.5 6v211q74 -4 97 57q9 23 9 47.5t-4 36.5z" />
<glyph unicode="&#x424;" horiz-adv-x="1429" d="M63 672q0 520 517 528v148h268v-148q268 -4 392 -140t124 -386t-123 -386t-393 -138v-150h-268v150q-270 4 -393.5 139t-123.5 383zM346 672q0 -162 58.5 -234.5t175.5 -77.5v627q-117 -4 -175.5 -78.5t-58.5 -236.5zM848 360q119 4 176 78t57 237t-58 236.5t-175 77.5 v-629z" />
<glyph unicode="&#x425;" horiz-adv-x="1101" d="M6 0l379 678l-362 670h327q12 -29 40 -91.5t60 -134.5q88 -203 101 -239q21 60 106.5 248t98.5 217h323l-362 -672q119 -210 379 -676h-336q-12 29 -42 92.5t-62 135.5q-90 197 -105 245q-14 -37 -45 -104.5t-64 -140.5q-49 -110 -106 -228h-330z" />
<glyph unicode="&#x426;" horiz-adv-x="1216" d="M127 0v1348h285v-1112h354v1112h283v-1112h122v-547h-247v311h-797z" />
<glyph unicode="&#x427;" horiz-adv-x="1101" d="M90 924v424h283v-449q0 -111 31.5 -152.5t99 -41.5t113 18t73.5 29v596h283v-1348h-283v547q-10 -4 -32.5 -15.5t-56.5 -23.5q-88 -31 -178.5 -31t-155 26.5t-103.5 80.5q-74 104 -74 340z" />
<glyph unicode="&#x428;" horiz-adv-x="1644" d="M127 0v1348h285v-1112h270v1112h281v-1112h268v1112h285v-1348h-1389z" />
<glyph unicode="&#x429;" horiz-adv-x="1683" d="M127 0v1348h285v-1112h270v1112h281v-1112h268v1112h285v-1112h122v-547h-247v311h-1264z" />
<glyph unicode="&#x42a;" horiz-adv-x="1245" d="M10 1348h602v-492q46 8 151 8t185 -22.5t138 -72.5q120 -105 120 -320q0 -231 -144 -351q-133 -112 -370 -112q-121 0 -216 7t-148 7v1110l-316 2zM612 203q27 -2 52 -2h51q96 0 152.5 60.5t56.5 170.5q0 225 -201 225q-78 0 -111 -6v-448z" />
<glyph unicode="&#x42b;" horiz-adv-x="1552" d="M127 0v1348h285v-492q46 8 150.5 8t184.5 -22.5t137 -72.5q122 -106 122 -320q0 -231 -144 -351q-133 -112 -370 -112q-121 0 -216.5 7t-148.5 7zM412 203q27 -2 52 -2h50q96 0 152.5 60.5t56.5 170.5q0 225 -201 225q-80 0 -110 -6v-448zM1141 0v1348h284v-1348h-284z " />
<glyph unicode="&#x42c;" horiz-adv-x="1058" d="M127 0v1348h285v-492q46 8 150.5 8t184.5 -22.5t137 -72.5q122 -106 122 -320q0 -231 -144 -351q-133 -112 -370 -112q-121 0 -216.5 7t-148.5 7zM412 203q27 -2 52 -2h50q96 0 152.5 60.5t56.5 170.5q0 225 -201 225q-80 0 -110 -6v-448z" />
<glyph unicode="&#x42d;" horiz-adv-x="966" d="M29 33q10 53 19 107.5t20 107.5q123 -51 225 -51q156 0 222.5 91t76.5 281h-377v230h375q-14 176 -80 262t-217 86q-106 0 -225 -51l-39 215q12 4 38.5 14t66.5 21q96 28 208 28q549 0 549 -702q0 -703 -549 -703q-150 0 -274 49q-27 11 -39 15z" />
<glyph unicode="&#x42e;" horiz-adv-x="1703" d="M127 0v1348h285v-555h209q20 297 145 438t363.5 141t371.5 -170t133 -528t-133 -529.5t-371.5 -171.5t-364.5 142.5t-147 445.5h-206v-561h-285zM899 674q0 -473 221 -473t221 473q0 471 -223 471q-119 0 -169 -126t-50 -345z" />
<glyph unicode="&#x42f;" horiz-adv-x="1069" d="M43 0l262 549q-155 58 -207 231q-18 62 -18 144q0 240 122 338t369 98l363 -12v-1348h-270v516l-105 -4l-215 -512h-301zM367 928q0 -211 170 -211l127 6v416q-62 4 -113 4q-98 0 -141 -53.5t-43 -161.5z" />
<glyph unicode="&#x430;" horiz-adv-x="956" d="M47 293q0 195 123 278.5t367 83.5l47 -4v25q0 166 -106 186q-32 6 -70 6q-133 0 -256 -45l-31 189q197 63 334 63q211 0 307 -99t96 -308v-668h-254q-4 29 -7 57.5t-7 57.5q-10 -10 -28.5 -33t-49.5 -46q-80 -61 -184 -61q-193 0 -258 175q-23 59 -23 143zM313 326 q0 -150 119 -150q83 0 131 62q12 16 21 26v232h-28q-13 0 -28 2q-117 0 -166 -37t-49 -135z" />
<glyph unicode="&#x431;" horiz-adv-x="995" d="M59 575q0 372 131 571q121 183 392 286q47 18 93 44.5t93 49.5l106 -178q-59 -37 -115.5 -78t-125 -71t-119.5 -60.5t-87 -68.5q-68 -71 -91 -196q47 66 143 96q37 11 84 11q168 0 269.5 -115.5t101.5 -355.5q0 -267 -122 -406q-114 -131 -323 -131q-212 0 -313 123 q-117 144 -117 479zM342 512q0 -176 35 -252t120 -76t119.5 78t34.5 232t-33.5 225.5t-117.5 71.5q-150 0 -156 -167q-2 -51 -2 -112z" />
<glyph unicode="&#x432;" horiz-adv-x="954" d="M106 0v1053l343 12q217 0 313 -61.5t96 -206.5q0 -167 -176 -246q138 -18 192 -131q23 -47 23 -119q0 -156 -97.5 -235.5t-318.5 -79.5q-125 0 -221 7t-154 7zM371 172q50 -4 98 -4q150 0 149 158q0 129 -141 129h-106v-283zM371 610h100q68 0 103 62q16 30 16 86 q0 115 -111 123l-108 -4v-267z" />
<glyph unicode="&#x433;" horiz-adv-x="677" d="M106 0v1053h547l-2 -219h-270v-834h-275z" />
<glyph unicode="&#x434;" horiz-adv-x="1097" d="M29 195q72 0 108.5 78.5t52 202.5t17.5 276.5t6 300.5h739v-840h111v-512h-236v299h-565v-299h-233v494zM377 213h307v637h-225q-2 -92 -3 -185.5t-8 -177.5q-14 -190 -71 -274z" />
<glyph unicode="&#x435;" horiz-adv-x="935" d="M57 498q0 279 125 436q113 141 299 141q281 0 368 -268q30 -92 30 -199.5t-13 -165.5h-534q2 -137 61.5 -197.5t144.5 -60.5t151.5 28t103.5 44l55 -180q-152 -101 -361 -101q-190 0 -303 123q-127 138 -127 400zM332 610h120q76 0 160 4q0 212 -80 252q-24 13 -52 13 t-54.5 -14.5t-47.5 -46.5q-46 -73 -46 -208z" />
<glyph unicode="&#x436;" horiz-adv-x="1523" d="M12 0l375 584l-338 469h309l267 -457v457h274v-457l266 457h310l-338 -469l374 -584h-329l-283 502v-502h-274v502l-283 -502h-330z" />
<glyph unicode="&#x437;" horiz-adv-x="784" d="M8 53l55 174q6 -2 24.5 -10t46.5 -16q80 -23 148 -23t116 35t48 106q0 72 -43 98.5t-118 26.5l-119 -2v179l67 2h52q135 0 135 137q0 114 -158 114q-63 0 -113.5 -14t-58.5 -18l-41 184q23 8 95.5 28.5t170 20.5t163 -14t113.5 -47q105 -72 105 -205q0 -191 -178 -256 q132 -16 186 -138q21 -46 21 -121t-29.5 -137.5t-81.5 -102.5q-104 -79 -290 -79q-160 0 -274 59q-27 13 -42 19z" />
<glyph unicode="&#x438;" horiz-adv-x="1058" d="M106 0v1053h265v-531l-6 -100q2 0 2 -2l356 633h227v-1053h-264v506l6 108h-2l-352 -614h-232z" />
<glyph unicode="&#x439;" horiz-adv-x="1058" d="M106 0v1053h265v-531l-6 -100q2 0 2 -2l356 633h227v-1053h-264v506l6 108h-2l-352 -614h-232zM225 1438q35 12 69 25.5t68 25.5q0 -37 32 -64q61 -53 141 -53q77 0 129 46q43 36 43 71l137 -47q0 -95 -76 -165q-88 -81 -233 -81q-147 0 -234 78q-76 68 -76 164z" />
<glyph unicode="&#x43a;" horiz-adv-x="974" d="M102 0v1053h275v-457l266 457h309l-338 -469l375 -584h-330l-282 502v-502h-275z" />
<glyph unicode="&#x43b;" horiz-adv-x="1040" d="M27 -6l14 190q59 15 76 28q39 28 49 105q32 254 49 736h719v-1053h-275v836h-200q-14 -552 -69 -692q-59 -154 -272 -154q-59 0 -91 4z" />
<glyph unicode="&#x43c;" horiz-adv-x="1216" d="M61 0q79 676 119 1051h240q8 -23 22.5 -71t34 -109.5t40 -130t38.5 -134t33.5 -120t23.5 -87.5q8 33 23.5 87.5t33 119t38 134t37.5 130.5q38 131 55 181h243l111 -1051h-254q-6 62 -17.5 236t-18.5 268t-9 151q-70 -269 -160 -571h-131l-45 4q0 -2 -1 -2t-1 -2 q-6 20 -18.5 61t-26.5 94.5t-31.5 114t-31.5 116.5q-24 91 -46 185q-33 -471 -51 -655h-250z" />
<glyph unicode="&#x43d;" horiz-adv-x="1048" d="M106 0v1053h275v-400h287v400h274v-1053h-274v444h-287v-444h-275z" />
<glyph unicode="&#x43e;" horiz-adv-x="1017" d="M57 525q0 550 451 550q327 0 420 -297q33 -105 33 -253.5t-33 -252.5t-92 -170q-114 -127 -328 -127q-451 0 -451 550zM342 525.5q0 -185.5 40 -266.5t126 -81t126 81t40 266t-40 266t-126 81t-126 -80.5t-40 -266z" />
<glyph unicode="&#x43f;" horiz-adv-x="1042" d="M106 0v1053h832v-1053h-276v836h-281v-836h-275z" />
<glyph unicode="&#x440;" d="M100 -469v1522h256l13 -140h4q72 103 181 145q46 17 107.5 17t122 -31.5t105.5 -97.5q98 -142 98 -405q0 -281 -115 -429q-108 -137 -288 -137q-111 0 -209 41v-485h-275zM377 201q57 -27 121 -27q104 0 154 79t50 263t-40.5 255t-120.5 71q-48 0 -85 -31 q-56 -46 -79 -86v-524z" />
<glyph unicode="&#x441;" horiz-adv-x="788" d="M57 510q0 287 114 426t331 139q121 0 246 -43l-33 -203q-83 33 -179.5 33t-145 -81t-48.5 -262t50 -255t140 -74q63 0 114.5 24t74.5 32l63 -176q-14 -6 -40.5 -21.5t-64.5 -32.5q-96 -41 -196 -41q-426 0 -426 535z" />
<glyph unicode="&#x442;" horiz-adv-x="804" d="M20 834v219h760l2 -219h-241v-834h-275v834h-246z" />
<glyph unicode="&#x443;" horiz-adv-x="940" d="M14 1053h289q111 -430 172 -758q12 66 37 175.5t50 223.5q39 172 87 359h279l-346 -1112q-57 -179 -167 -287q-46 -45 -90 -70.5t-77 -44.5l-123 168q12 10 42 29.5t65 52.5q88 84 114 188z" />
<glyph unicode="&#x444;" horiz-adv-x="1452" d="M57 508q0 257 102 408q50 75 125.5 117t159 42t148.5 -51v449l268 40v-505q58 67 160 67t169.5 -41t114.5 -112q91 -138 91 -375q0 -257 -102 -412q-105 -160 -304 -160q-68 0 -129 50v-494h-268v512h-2q-20 -23 -62.5 -45.5t-120 -22.5t-145 42t-114.5 114 q-91 142 -91 377zM336 528q0 -354 153 -354q66 0 103 35v659q-45 9 -94 9q-88 0 -125 -89.5t-37 -259.5zM860 180q40 -8 90 -8q90 0 127 91t37 263q0 348 -153 348q-65 0 -101 -34v-660z" />
<glyph unicode="&#x445;" horiz-adv-x="935" d="M10 0l299 545l-278 508h297q10 -20 29.5 -69.5t42.5 -105.5q55 -137 73 -192q3 0 28 66.5t43.5 112.5t34 87t25.5 70t12 31h289l-280 -516l299 -537h-295q-47 89 -101.5 219.5t-66.5 165.5q-28 -80 -160 -385h-291z" />
<glyph unicode="&#x446;" horiz-adv-x="1081" d="M106 0v1053h275v-838h281v838h274v-838h111v-545h-238v330h-703z" />
<glyph unicode="&#x447;" horiz-adv-x="980" d="M68 666v387h276v-275q0 -135 14.5 -169t36 -46t48 -12t48 3t43.5 9q46 13 66 29v461h274v-1053h-274v410q-108 -72 -254.5 -72t-212 74.5t-65.5 253.5z" />
<glyph unicode="&#x448;" horiz-adv-x="1466" d="M106 0v1053h269v-838h227v838h262v-838h226v838h270v-1053h-1254z" />
<glyph unicode="&#x449;" horiz-adv-x="1507" d="M106 0v1053h269v-838h227v838h262v-838h226v838h270v-838h113v-545h-242v330h-1125z" />
<glyph unicode="&#x44a;" horiz-adv-x="1091" d="M14 836v217h502v-359q16 2 67.5 13.5t118 11.5t128 -17.5t107.5 -57.5q101 -88 101 -273q0 -195 -126 -295q-114 -90 -316 -90h-76q-90 0 -165.5 7t-112.5 7v836h-228zM516 178q46 -4 105 -4t100 46t41 139t-36.5 129t-87.5 36q-98 0 -122 -12v-334z" />
<glyph unicode="&#x44b;" horiz-adv-x="1380" d="M106 0v1053h275v-359q16 2 67.5 13.5t118 11.5t128 -17.5t107.5 -57.5q101 -88 101 -273q0 -195 -127 -295q-113 -90 -315 -90h-76q-90 0 -166 7t-113 7zM381 178q46 -4 105 -4t100 46t41 139t-37 129t-88 36q-97 0 -121 -12v-334zM997 0v1053h277v-1053h-277z" />
<glyph unicode="&#x44c;" horiz-adv-x="946" d="M106 0v1053h275v-359q16 2 67.5 13.5t118 11.5t128 -17.5t107.5 -57.5q101 -88 101 -273q0 -195 -127 -295q-113 -90 -315 -90h-76q-90 0 -166 7t-113 7zM381 178q46 -4 105 -4t100 46t41 139t-37 129t-88 36q-97 0 -121 -12v-334z" />
<glyph unicode="&#x44d;" horiz-adv-x="806" d="M16 68l60 170q23 -8 76 -31t130 -23t133 57.5t68 207.5h-309v174h311q-8 139 -58 193t-123 54q-125 0 -206 -34l-45 188q29 10 99.5 30.5t167 20.5t175 -30.5t135.5 -96.5q124 -140 124 -407q0 -293 -124 -437q-113 -129 -308 -129q-151 0 -266 71q-25 15 -40 22z" />
<glyph unicode="&#x44e;" horiz-adv-x="1470" d="M106 0v1053h275v-402l158 2q43 422 428 422q448 0 448 -549q0 -427 -268 -522q-82 -29 -174 -29t-168 24t-133 78q-122 117 -137 359h-154v-436h-275zM805 526q0 -170 37 -261t126 -91t125.5 91t36.5 261t-36.5 260.5t-125.5 90.5t-126 -90.5t-37 -260.5z" />
<glyph unicode="&#x44f;" horiz-adv-x="942" d="M37 0l221 426q-82 29 -139.5 106.5t-57.5 200.5q0 182 113 257t320 75q111 0 199.5 -8t140.5 -8v-1049h-275v395q-16 -2 -33 -2h-34l-166 -393h-289zM332 721q0 -86 36.5 -124t110.5 -38h38q20 0 42 2v324l-67 2q-160 0 -160 -166z" />
<glyph unicode="&#x451;" horiz-adv-x="935" d="M57 498q0 279 125 436q113 141 299 141q281 0 368 -268q30 -92 30 -199.5t-13 -165.5h-534q2 -137 61.5 -197.5t144.5 -60.5t151.5 28t103.5 44l55 -180q-152 -101 -361 -101q-190 0 -303 123q-127 138 -127 400zM143 1376q0 70 40 113t100 43q59 0 97 -43t38 -113 t-38 -112.5t-97 -42.5t-99.5 43t-40.5 112zM332 612l280 2q0 212 -80 252q-24 13 -52 13t-54.5 -13.5t-47.5 -45.5q-46 -73 -46 -208zM535 1376q0 70 38.5 113t98.5 43q59 0 99 -43t40 -113t-40 -112.5t-99 -42.5t-98 43t-39 112z" />
<glyph unicode="&#x452;" horiz-adv-x="1048" d="M12 1155v193h94v165h269v-165h266v-193h-264v-299q65 78 179 120q48 17 124 17t130 -34.5t84 -103.5q50 -115 50 -345q0 -382 -26 -662q-16 -178 -90 -254.5t-230 -76.5q-42 0 -102 10l8 205q74 4 100 30q39 39 52 154q20 176 20 426t-7 293t-21 67q-23 41 -95 41 t-176 -104v-639h-271v1155h-94z" />
<glyph unicode="&#x453;" horiz-adv-x="677" d="M106 0v1053h562l-17 -217h-135q-67 0 -135 2v-838h-275zM217 1284l285 342l155 -149l-321 -303z" />
<glyph unicode="&#x454;" horiz-adv-x="806" d="M57 510q0 141 33 249.5t92 178.5q114 137 316 137q98 0 161.5 -18.5t92.5 -28.5l-35 -194q-18 8 -73.5 22t-113.5 14q-96 0 -142 -57t-56 -192h299v-175h-301q10 -141 64.5 -201.5t132 -60.5t131.5 25t77 33l58 -181q-14 -6 -41 -20t-66 -29q-202 -75 -374 -5 q-159 65 -223 263q-32 99 -32 240z" />
<glyph unicode="&#x455;" horiz-adv-x="770" d="M37 57l47 185q12 -4 36.5 -15.5t57.5 -22.5q84 -28 141 -28t90 18.5t33 69.5t-27.5 85t-70.5 65.5t-91 66.5t-91 77q-99 97 -99 228t92.5 210t249 79t281.5 -43q-4 -51 -8 -101l-8 -100q-23 6 -84.5 22.5t-124.5 16.5q-131 0 -131 -82q0 -39 29.5 -70.5t73.5 -62 t95.5 -64.5t95.5 -76q103 -98 103 -226q0 -217 -197 -289q-69 -25 -150 -25t-134 10.5t-94 24.5q-59 19 -115 47z" />
<glyph unicode="&#x456;" horiz-adv-x="489" d="M86 1374q0 74 45 121t111 47t110.5 -47t44.5 -121t-45 -120t-110 -46q-66 0 -111 46t-45 120zM106 0v1032l277 41v-1073h-277z" />
<glyph unicode="&#x457;" horiz-adv-x="489" d="M-88 1376q0 70 39 113t98 43t97 -43t38 -113t-37.5 -112.5t-97.5 -42.5q-59 0 -98 43t-39 112zM106 0v1032l277 41v-1073h-277zM301 1376q0 70 39 113t98 43t99.5 -43t40.5 -113t-40 -112.5t-100 -42.5q-59 0 -98 43t-39 112z" />
<glyph unicode="&#x458;" horiz-adv-x="499" d="M-45 -473l12 203q85 8 116 52q34 50 34 173v1077l274 41v-1145q0 -323 -187 -390q-63 -23 -118.5 -23t-80.5 4zM96 1374q0 74 46 121t110.5 47t110 -47t45.5 -121t-45.5 -120t-110 -46t-110.5 46t-46 120z" />
<glyph unicode="&#x459;" horiz-adv-x="1507" d="M27 -6l14 190q65 13 84 31q34 31 49 143q28 197 41 695h713v-359q16 2 67.5 13.5t118 11.5t128 -17.5t107.5 -57.5q101 -88 101 -273q0 -194 -127 -295q-113 -90 -315 -90h-76q-90 0 -166 7t-113 7v836h-194q-8 -317 -29.5 -481.5t-42 -217.5t-56.5 -86q-69 -63 -220 -63 q-47 0 -84 6zM928 178q46 -4 105 -4t100 46t41 139t-37 129t-87 36q-98 0 -122 -12v-334z" />
<glyph unicode="&#x45a;" horiz-adv-x="1517" d="M106 0v1053h275v-398h283v398h274v-359q16 2 67.5 13.5t118 11.5t128 -17.5t107.5 -57.5q101 -88 101 -273q0 -195 -126 -295q-114 -90 -316 -90h-76q-90 0 -166 7t-112 7v449h-283v-449h-275zM938 178q46 -4 105 -4t100 46t41 139t-37 129t-87 36q-98 0 -122 -12v-334z " />
<glyph unicode="&#x45b;" horiz-adv-x="1042" d="M12 1339h99v81q0 40 2 81l262 12v-174h266l-12 -192h-252v-291q66 79 180 120q49 17 124 17t129 -35.5t84 -101.5q50 -109 50 -371v-485h-268v539q0 119 -26.5 161.5t-97.5 42.5t-175 -104v-639h-271v1147h-86z" />
<glyph unicode="&#x45c;" horiz-adv-x="980" d="M109 0v1053h274v-414l59 66l207 348h312l-340 -467l374 -586h-329l-263 461l-20 -78v-383h-274zM369 1284l284 342l154 -149l-320 -303z" />
<glyph unicode="&#x45e;" horiz-adv-x="940" d="M14 1053h289q111 -430 172 -758q12 66 37 175.5t50 223.5q39 172 87 359h279l-346 -1112q-57 -179 -167 -287q-46 -45 -90 -70.5t-77 -44.5l-123 168q12 10 42 29.5t65 52.5q88 84 114 188zM160 1438q35 12 68.5 25.5t68.5 25.5q0 -38 32 -65q60 -52 140 -52q77 0 130 46 q42 36 42 71l137 -47q0 -95 -76 -165q-88 -81 -233 -81q-148 0 -234 78q-75 69 -75 164z" />
<glyph unicode="&#x45f;" horiz-adv-x="1062" d="M106 0v1053h275v-828h301v828h274v-1053h-305v-313h-237v313h-308z" />
<glyph unicode="&#x490;" horiz-adv-x="811" d="M127 0v1348h426v221l242 41v-496h-383v-1114h-285z" />
<glyph unicode="&#x491;" horiz-adv-x="671" d="M106 0v1053h318v231l233 41v-489h-276v-836h-275z" />
<glyph unicode="&#x2000;" horiz-adv-x="953" />
<glyph unicode="&#x2001;" horiz-adv-x="1907" />
<glyph unicode="&#x2002;" horiz-adv-x="953" />
<glyph unicode="&#x2003;" horiz-adv-x="1907" />
<glyph unicode="&#x2004;" horiz-adv-x="635" />
<glyph unicode="&#x2005;" horiz-adv-x="476" />
<glyph unicode="&#x2006;" horiz-adv-x="317" />
<glyph unicode="&#x2007;" horiz-adv-x="317" />
<glyph unicode="&#x2008;" horiz-adv-x="238" />
<glyph unicode="&#x2009;" horiz-adv-x="381" />
<glyph unicode="&#x200a;" horiz-adv-x="105" />
<glyph unicode="&#x2010;" horiz-adv-x="653" d="M74 463v221h506v-221h-506z" />
<glyph unicode="&#x2011;" horiz-adv-x="653" d="M74 463v221h506v-221h-506z" />
<glyph unicode="&#x2012;" horiz-adv-x="653" d="M74 463v221h506v-221h-506z" />
<glyph unicode="&#x2013;" horiz-adv-x="925" d="M49 494v229h825v-229h-825z" />
<glyph unicode="&#x2014;" horiz-adv-x="1558" d="M84 496v225h1389v-225h-1389z" />
<glyph unicode="&#x2018;" horiz-adv-x="421" d="M82 1110q0 57 15.5 111.5t40.5 109.5q42 90 128 215l113 -57q-90 -170 -90 -272q4 -33 22.5 -66t20.5 -72t-34 -67.5t-88 -28.5t-90 35t-38 92z" />
<glyph unicode="&#x2019;" horiz-adv-x="421" d="M41 1038q90 170 90 273q-2 33 -22.5 65.5t-20.5 71.5t36 67.5t85 28.5q129 0 129 -164q-8 -95 -49 -174q-57 -111 -133 -225z" />
<glyph unicode="&#x201a;" horiz-adv-x="421" d="M41 -248q90 170 90 273q-2 33 -22.5 65.5t-20.5 71.5t36 67.5t85 28.5q129 0 129 -164q-13 -155 -182 -397z" />
<glyph unicode="&#x201c;" horiz-adv-x="774" d="M82 1110q0 57 15.5 111.5t40.5 109.5q42 90 128 215l113 -57q-88 -166 -88 -272q4 -33 21.5 -65t21.5 -79q0 -33 -36 -61.5t-88 -28.5t-90 35t-38 92zM430 1110q0 57 15.5 111.5t42.5 109.5q51 107 126 215l113 -57q-88 -166 -88 -272q4 -33 22.5 -66t20.5 -72t-35 -67.5 t-89 -28.5t-90 35t-38 92z" />
<glyph unicode="&#x201d;" horiz-adv-x="774" d="M41 1038q90 170 90 273q-2 33 -22.5 65.5t-20.5 71.5t36 67.5t85 28.5q129 0 129 -164q-8 -95 -49 -174q-57 -111 -133 -225zM391 1038q78 136 78 211q0 35 -9 71t-9 79v10q0 59 32.5 97t73.5 38q131 0 131 -164q-8 -93 -49 -175q-62 -123 -135 -224z" />
<glyph unicode="&#x201e;" horiz-adv-x="774" d="M41 -248q90 170 90 273q-2 33 -22.5 65.5t-20.5 71.5t36 67.5t85 28.5q129 0 129 -164q-13 -155 -182 -397zM391 -248q78 142 78 213q0 35 -9 70t-9 78v10q0 59 32.5 97t73.5 38q131 0 131 -164q-14 -161 -184 -397z" />
<glyph unicode="&#x2020;" horiz-adv-x="962" d="M90 741v224h272v383h236v-383h272v-224h-262l-12 -1144h-231q-6 432 -11 1144h-264z" />
<glyph unicode="&#x2021;" horiz-adv-x="962" d="M90 -20v223h270v241l2 326h-272v223h272v355l236 2l2 -355l272 -2l-2 -223l-272 2v-285l-2 -282l276 -2l-2 -223h-274v-383h-236v383h-270z" />
<glyph unicode="&#x2022;" horiz-adv-x="794" d="M125 725q0 132 80 221q78 86 194 86q117 0 195 -86q80 -89 80 -221t-80 -218q-79 -85 -195 -85q-115 0 -194 85q-80 86 -80 218z" />
<glyph unicode="&#x2026;" horiz-adv-x="1499" d="M102 152q0 78 44 125t110 47t109 -47t43 -125t-43 -125t-109 -47t-110 47t-44 125zM596 152q0 78 44 125t110 47t108.5 -47t42.5 -125t-43 -125t-108 -47q-66 0 -110 47t-44 125zM1090 152q0 78 44 125t109 47q66 0 110 -47t44 -125t-44 -125t-110 -47t-109.5 47 t-43.5 125z" />
<glyph unicode="&#x202f;" horiz-adv-x="381" />
<glyph unicode="&#x2030;" horiz-adv-x="2631" d="M63 948q0 434 334 434t334 -434q0 -223 -82 -330.5t-253 -107.5t-252 107.5t-81 330.5zM279 946q0 -256 118 -256q66 0 93.5 66.5t27.5 191.5q0 254 -121 254q-118 0 -118 -256zM489 -10l662 1372h223l-659 -1372h-226zM1128 403q0 434 334 435q336 -1 336 -435 q0 -223 -83 -330.5t-254 -107.5t-252 107.5t-81 330.5zM1343 402q0 -255 119 -255q66 0 93.5 65.5t27.5 190.5q0 254 -121 254q-119 0 -119 -255zM1898 403q0 434 334 435q336 -1 336 -435q0 -223 -83 -330.5t-254 -107.5t-252 107.5t-81 330.5zM2114 403 q0 -125 27.5 -190.5t92 -65.5t92 65.5t27.5 190.5q0 254 -121 254q-118 0 -118 -254z" />
<glyph unicode="&#x2039;" horiz-adv-x="604" d="M86 549l311 391l127 -111l-205 -278l205 -279q-33 -31 -63.5 -61.5t-63.5 -58.5z" />
<glyph unicode="&#x203a;" horiz-adv-x="604" d="M76 821l129 119l311 -395l-311 -393l-127 110l203 281z" />
<glyph unicode="&#x2044;" horiz-adv-x="925" d="M63 51l650 1239l202 -26l-647 -1241z" />
<glyph unicode="&#x205f;" horiz-adv-x="476" />
<glyph unicode="&#x20ac;" horiz-adv-x="1110" d="M57 461l17 143h90v141h-107l17 144h104q76 485 535 485q116 0 194 -20q102 -25 156 -43q-10 -53 -19.5 -107.5t-19.5 -107.5q-62 27 -143.5 39t-118.5 12q-129 0 -196.5 -64.5t-90.5 -193.5h356l-14 -144h-356v-141h346l-14 -143h-318q23 -135 89.5 -199.5t197.5 -64.5 q54 0 122 13q93 18 140 38l39 -215q-192 -64 -350 -64q-462 0 -535 492h-121z" />
<glyph unicode="&#x2116;" horiz-adv-x="1855" d="M127 0v1348h256q102 -209 200.5 -416t200.5 -416q-4 86 -4 170v662h250v-1348h-254l-403 838q0 -70 4 -144v-694h-250zM1180 908q0 101 23.5 173t64.5 116q79 85 223 85q311 0 311 -373.5t-311 -373.5q-220 0 -287 201q-24 71 -24 172zM1221 170v192h540v-192h-540z M1384 909q0 -221 107 -221q59 0 85 55t26 166q0 219 -111 219q-57 0 -82 -55t-25 -164z" />
<glyph unicode="&#x2122;" horiz-adv-x="1538" d="M80 1348v165h569v-165h-194v-664h-189v664h-186zM662 684l98 829h188q31 -121 61.5 -240.5t63.5 -240.5l139 481h185q23 -209 43 -414.5t41 -414.5h-187l-43 496l-121 -418h-126q-29 111 -57.5 221.5t-57.5 220.5q-10 -160 -23.5 -295t-21.5 -225h-182z" />
<glyph unicode="&#xe000;" horiz-adv-x="1054" d="M0 0v1055h1055v-1055h-1055z" />
</font>
</defs>
</svg>
